<svg width="82" height="81" viewBox="0 0 82 81" fill="none" xmlns="http://www.w3.org/2000/svg">
<g id="Automated Trading Bots Icon">
<path id="Ellipse 142" d="M81.5 40.5C81.5 62.5856 63.3733 80.5 41 80.5C18.6267 80.5 0.5 62.5856 0.5 40.5C0.5 18.4144 18.6267 0.5 41 0.5C63.3733 0.5 81.5 18.4144 81.5 40.5Z" stroke="#fff" fill="#1295D2"/>
<g id="Group 2033">
<g id="Group">
<g id="Group_2">
<path id="Vector" d="M30.1349 41.875H28.422C27.3293 41.875 26.4402 41.0082 26.4402 39.9428C26.4402 39.6191 26.1729 39.3569 25.8431 39.3569C25.5132 39.3569 25.2459 39.6191 25.2459 39.9428C25.2459 41.6544 26.6707 43.0469 28.4221 43.0469H30.1349C30.4648 43.0469 30.7321 42.7846 30.7321 42.4609C30.7321 42.1373 30.4648 41.875 30.1349 41.875Z" fill="white"/>
</g>
</g>
<g id="Group_3">
<g id="Group_4">
<path id="Vector_2" d="M35.7463 46.2115H30.6447C28.9598 46.2115 27.5889 47.5512 27.5889 49.198C27.5889 49.5216 27.8562 49.7839 28.1861 49.7839C28.5159 49.7839 28.7832 49.5215 28.7832 49.198C28.7832 48.1974 29.6182 47.3834 30.6447 47.3834H35.7463C36.0761 47.3834 36.3434 47.1212 36.3434 46.7975C36.3434 46.4738 36.0761 46.2115 35.7463 46.2115Z" fill="white"/>
</g>
</g>
<g id="Group_5">
<g id="Group_6">
<path id="Vector_3" d="M40.612 46.2115H38.135C37.8051 46.2115 37.5379 46.4738 37.5379 46.7975C37.5379 47.1212 37.8051 47.3834 38.135 47.3834H40.612C40.9419 47.3834 41.2091 47.1212 41.2091 46.7975C41.2091 46.4738 40.9418 46.2115 40.612 46.2115Z" fill="white"/>
</g>
</g>
<g id="Group_7">
<g id="Group_8">
<path id="Vector_4" d="M36.4131 34.8263C36.0833 34.8263 35.816 35.0886 35.816 35.4122C35.816 37.0877 34.4186 38.4507 32.701 38.4507C32.3711 38.4507 32.1038 38.713 32.1038 39.0367C32.1038 39.3604 32.3711 39.6226 32.701 39.6226C35.0772 39.6226 37.0103 37.7339 37.0103 35.4122C37.0103 35.0886 36.743 34.8263 36.4131 34.8263Z" fill="white"/>
</g>
</g>
<g id="Group_9">
<g id="Group_10">
<path id="Vector_5" d="M35.3124 25.9684C33.8858 25.8786 32.649 26.9398 32.5565 28.3348C32.5351 28.6577 32.7845 28.9365 33.1136 28.9576C33.1268 28.9584 33.14 28.9588 33.153 28.9588C33.4651 28.9588 33.7277 28.7209 33.7483 28.4109C33.798 27.6603 34.4653 27.0902 35.2356 27.1379C35.565 27.1595 35.8487 26.9138 35.8699 26.5909C35.8911 26.2679 35.6415 25.9893 35.3124 25.9684Z" fill="white"/>
</g>
</g>
<g id="Group_11">
<g id="Group_12">
<path id="Vector_6" d="M33.304 48.8206C32.9741 48.8206 32.7069 49.0829 32.7069 49.4066C32.7069 49.7302 32.9741 49.9925 33.304 49.9925C34.2901 49.9925 35.0924 50.7744 35.0924 51.7355C35.0924 52.6969 34.2901 53.4788 33.304 53.4788C32.9741 53.4788 32.7069 53.7411 32.7069 54.0648C32.7069 54.3884 32.9741 54.6507 33.304 54.6507C34.9487 54.6507 36.2867 53.343 36.2867 51.7355C36.2867 50.1283 34.9487 48.8206 33.304 48.8206Z" fill="white"/>
</g>
</g>
<g id="Group_13">
<g id="Group_14">
<path id="Vector_7" d="M39.4155 35.0229C39.0856 35.0229 38.8183 35.2852 38.8183 35.6088C38.8183 35.9325 39.0856 36.1948 39.4155 36.1948C40.2077 36.1948 40.8522 36.8227 40.8522 37.5945C40.8522 38.3665 40.2077 38.9945 39.4155 38.9945C39.0856 38.9945 38.8183 39.2567 38.8183 39.5804C38.8183 39.9041 39.0856 40.1663 39.4155 40.1663C40.8663 40.1663 42.0465 39.0126 42.0465 37.5945C42.0465 36.1766 40.8663 35.0229 39.4155 35.0229Z" fill="white"/>
</g>
</g>
<g id="Group_15">
<g id="Group_16">
<path id="Vector_8" d="M28.8959 31.2974C28.5661 31.2974 28.2988 31.5597 28.2988 31.8834C28.2988 32.207 28.5661 32.4693 28.8959 32.4693C30.257 32.4693 31.3642 33.549 31.3642 34.8762C31.3642 36.2034 30.257 37.2832 28.8959 37.2832C28.5661 37.2832 28.2988 37.5455 28.2988 37.8691C28.2988 38.1928 28.5661 38.4551 28.8959 38.4551C30.9155 38.4551 32.5586 36.8496 32.5586 34.8762C32.5586 32.9028 30.9155 31.2974 28.8959 31.2974Z" fill="white"/>
</g>
</g>
<g id="Group_17">
<g id="Group_18">
<path id="Vector_9" d="M56.9691 31.2709C55.8467 31.2709 54.9335 32.1638 54.9335 33.2613C54.9335 34.3588 55.8467 35.2517 56.9691 35.2517C58.0916 35.2517 59.0047 34.3588 59.0047 33.2613C59.0047 32.1638 58.0916 31.2709 56.9691 31.2709ZM56.9692 34.0799C56.5053 34.0799 56.1279 33.7127 56.1279 33.2613C56.1278 32.81 56.5052 32.4428 56.9692 32.4428C57.4331 32.4428 57.8105 32.81 57.8105 33.2613C57.8105 33.7127 57.4331 34.0799 56.9692 34.0799Z" fill="white"/>
</g>
</g>
<g id="Group_19">
<g id="Group_20">
<path id="Vector_10" d="M58.9645 46.267C57.842 46.267 56.9288 47.1599 56.9288 48.2575C56.9288 49.3551 57.842 50.2479 58.9645 50.2479C60.0869 50.2479 61 49.355 61 48.2575C61 47.16 60.0869 46.267 58.9645 46.267ZM58.9645 49.076C58.5006 49.076 58.1232 48.7088 58.1232 48.2575C58.1232 47.8062 58.5006 47.4389 58.9645 47.4389C59.4283 47.4389 59.8057 47.8061 59.8057 48.2575C59.8057 48.7088 59.4283 49.076 58.9645 49.076Z" fill="white"/>
</g>
</g>
<g id="Group_21">
<g id="Group_22">
<path id="Vector_11" d="M57.7115 39.2446C57.3671 39.2447 57.0425 39.3291 56.7578 39.4774L55.5937 38.3409C55.3598 38.1126 54.9818 38.1136 54.7493 38.3429C54.5166 38.5723 54.5176 38.9432 54.7513 39.1715L55.9125 40.3052C55.7617 40.583 55.6759 40.8993 55.6759 41.235C55.6759 42.3326 56.5891 43.2255 57.7115 43.2255C58.834 43.2255 59.7471 42.3326 59.7471 41.235C59.7471 40.1375 58.834 39.2446 57.7115 39.2446ZM57.7116 42.0537C57.2477 42.0537 56.8703 41.6865 56.8703 41.2351C56.8703 40.7838 57.2477 40.4166 57.7116 40.4166C58.1755 40.4166 58.5529 40.7838 58.5529 41.2351C58.5529 41.6864 58.1755 42.0537 57.7116 42.0537Z" fill="white"/>
</g>
</g>
<g id="Group_23">
<g id="Group_24">
<path id="Vector_12" d="M56.3659 52.3833C55.2434 52.3833 54.3303 53.2762 54.3303 54.3738C54.3303 55.4713 55.2435 56.3642 56.3659 56.3642C57.4884 56.3642 58.4015 55.4713 58.4015 54.3738C58.4015 53.2762 57.4884 52.3833 56.3659 52.3833ZM56.3659 55.1923C55.902 55.1923 55.5246 54.8251 55.5246 54.3737C55.5246 53.9224 55.902 53.5551 56.3659 53.5551C56.8298 53.5551 57.2072 53.9223 57.2072 54.3737C57.2073 54.8251 56.8299 55.1923 56.3659 55.1923Z" fill="white"/>
</g>
</g>
<g id="Group_25">
<g id="Group_26">
<path id="Vector_13" d="M49.3787 32.0113C49.7583 32.0113 50.2111 31.8279 50.4802 31.5652L52.7872 29.3127C53.019 29.4027 53.2713 29.4527 53.5354 29.4527C54.6579 29.4527 55.571 28.5598 55.571 27.4622C55.571 26.3647 54.6578 25.4719 53.5354 25.4719C52.4129 25.4719 51.4998 26.3648 51.4998 27.4622C51.4998 27.8743 51.6286 28.2577 51.849 28.5756L49.6379 30.7344C49.5912 30.7784 49.4433 30.8384 49.3787 30.8395H44.4496V26.9608H45.8361C46.0925 27.7732 46.8676 28.3653 47.7816 28.3653C48.9041 28.3653 49.8172 27.4724 49.8172 26.3748C49.8172 25.2773 48.904 24.3845 47.7816 24.3845C46.8676 24.3845 46.0925 24.9765 45.8361 25.7889H44.4496V25.7002C44.4496 23.1084 42.2915 21 39.6386 21C37.7422 21 36.041 22.0845 35.2647 23.7428C35.1453 23.7345 35.0263 23.7303 34.9082 23.7303C32.1511 23.7303 29.9005 25.8902 29.8366 28.5691C29.5985 28.5358 29.3578 28.519 29.1159 28.519C26.3187 28.519 24.043 30.7423 24.043 33.475C24.043 34.0748 24.1502 34.6552 24.3624 35.2073C22.2743 36.423 21 38.5945 21 41C21 42.2916 21.3749 43.547 22.0842 44.6305C22.6685 45.523 23.4556 46.2659 24.3815 46.8036C24.159 47.3693 24.043 47.9751 24.043 48.5834C24.043 49.7898 24.4919 50.9523 25.307 51.857C25.5254 52.0994 25.9028 52.1222 26.1499 51.9078C26.3971 51.6934 26.4203 51.3232 26.2018 51.0807C25.5798 50.3905 25.2373 49.5035 25.2373 48.5833C25.2373 47.9642 25.3865 47.3738 25.6801 46.8281C26.0306 46.1749 26.5751 45.6234 27.2639 45.2574C27.554 45.1033 27.6617 44.7477 27.5046 44.4632C27.3476 44.1785 26.9851 44.0727 26.6952 44.227C25.9819 44.6062 25.3872 45.1378 24.9425 45.7672C23.2349 44.7593 22.1943 42.9772 22.1943 41C22.1943 38.8859 23.3877 36.9908 25.3144 36.0316C25.3144 36.0316 26.4293 35.423 27.9093 35.423C28.2391 35.423 28.5064 35.1607 28.5064 34.837C28.5064 34.5134 28.2391 34.2511 27.9093 34.2511C27.0417 34.2511 26.2113 34.4085 25.4456 34.695C25.3083 34.3044 25.2375 33.8962 25.2375 33.4751C25.2375 31.3884 26.9774 29.6909 29.1161 29.6909C29.5181 29.6909 29.9158 29.7513 30.2982 29.8705C30.4941 29.9315 30.7082 29.8894 30.865 29.7589C31.0219 29.6284 31.0992 29.4281 31.0699 29.2284C31.0432 29.0466 31.0297 28.8642 31.0297 28.6864C31.0297 26.5998 32.7696 24.9023 34.9084 24.9023C35.1184 24.9023 35.3331 24.9199 35.5467 24.9544C37.3826 25.2523 38.787 26.812 38.787 28.6864C38.787 29.0101 39.0543 29.2723 39.3842 29.2723C39.714 29.2723 39.9813 29.0101 39.9813 28.6864C39.9813 26.4909 38.5119 24.6255 36.4836 23.9766C37.1141 22.8765 38.3124 22.1719 39.6386 22.1719C41.6328 22.1719 43.2553 23.7547 43.2553 25.7002V25.7652H42.1067C41.7769 25.7652 41.5096 26.0275 41.5096 26.3512C41.5096 26.6748 41.7769 26.9371 42.1067 26.9371H43.2553V30.8394H38.4254C37.3326 30.8394 36.4436 29.9727 36.4436 28.9073C36.4436 28.5837 36.1763 28.3214 35.8464 28.3214C35.5165 28.3214 35.2492 28.5837 35.2492 28.9073C35.2492 30.6188 36.6741 32.0112 38.4254 32.0112H43.2553V41.875H33.5686C33.2388 41.875 32.9715 42.1373 32.9715 42.4609C32.9715 42.7846 33.2388 43.0469 33.5686 43.0469H43.2553V51.0919H41.41C39.725 51.0919 38.3542 52.4315 38.3542 54.0782C38.3542 54.4019 38.6215 54.6641 38.9514 54.6641C39.2813 54.6641 39.5486 54.4019 39.5486 54.0782C39.5486 53.0777 40.3836 52.2638 41.41 52.2638H43.2553V56.2998C43.2553 56.3919 43.2505 56.4828 43.2434 56.573H42.1067C41.7769 56.573 41.5096 56.8353 41.5096 57.159C41.5096 57.4827 41.7769 57.7449 42.1067 57.7449H42.9367C42.3697 58.9716 41.1052 59.8281 39.6386 59.8281C38.3214 59.8281 37.1274 59.1308 36.4937 58.0412C37.215 57.81 37.8788 57.4214 38.4381 56.892C38.6754 56.6673 38.6822 56.2964 38.4532 56.0636C38.2242 55.8305 37.8462 55.824 37.6089 56.0487C37.0386 56.5885 36.3258 56.937 35.556 57.063C35.339 57.0986 35.121 57.1167 34.9082 57.1167C32.7695 57.1167 31.0295 55.4191 31.0295 53.3325C31.0295 53.2791 31.0328 53.2238 31.0354 53.1689C31.5174 52.9764 31.9702 52.713 32.3741 52.3822C32.6273 52.1748 32.6611 51.8053 32.4497 51.5569C32.2383 51.3084 31.8679 51.2827 31.6086 51.4827C30.4103 52.4062 29.2513 52.3919 28.7877 52.3541C28.458 52.3267 28.1704 52.5671 28.143 52.8895C28.1157 53.212 28.3601 53.4952 28.6888 53.522C29.0706 53.553 29.4595 53.5421 29.8377 53.4892C29.9226 56.1498 32.1646 58.2886 34.9083 58.2886C35.0292 58.2886 35.1511 58.2841 35.2733 58.2754C36.0538 59.9227 37.7516 61 39.6386 61C42.2914 61 44.4496 58.8916 44.4496 56.2998V55.005H47.6152C47.68 55.0061 47.828 55.066 47.8746 55.1099L49.2983 56.5C49.1057 56.804 48.9941 57.162 48.9941 57.5452C48.9941 58.6427 49.9073 59.5356 51.0297 59.5356C52.1523 59.5356 53.0654 58.6427 53.0654 57.5452C53.0654 56.4476 52.1522 55.5547 51.0297 55.5547C50.7346 55.5547 50.4542 55.617 50.2007 55.7279L48.717 54.2792C48.4479 54.0166 47.995 53.8331 47.6155 53.8331H44.4496V50.7009H49.641C49.8974 51.5134 50.6725 52.1055 51.5865 52.1055C52.709 52.1055 53.6222 51.2126 53.6222 50.115C53.6222 49.0174 52.709 48.1245 51.5865 48.1245C50.6726 48.1245 49.8974 48.7166 49.641 49.5291H44.4496V45.6041H50.6619C50.9183 46.4165 51.6934 47.0086 52.6075 47.0086C53.73 47.0086 54.6431 46.1157 54.6431 45.0181C54.6431 43.9205 53.7299 43.0277 52.6075 43.0277C51.6934 43.0277 50.9183 43.6197 50.6619 44.4322H44.4496V40.1674H45.9288C46.1854 40.9798 46.9604 41.5719 47.8744 41.5719C48.9969 41.5719 49.91 40.679 49.91 39.5815C49.91 38.4839 48.9968 37.591 47.8744 37.591C46.9604 37.591 46.1853 38.183 45.9288 38.9955H44.4496V35.6142H50.9562C51.0209 35.6154 51.1689 35.6752 51.2155 35.7191L52.4422 36.917C52.5586 37.0307 52.711 37.0876 52.8634 37.0876C53.0166 37.0876 53.17 37.03 53.2866 36.9149C53.5193 36.6855 53.5183 36.3145 53.2846 36.0863L52.0579 34.8884C51.7889 34.6258 51.336 34.4423 50.9564 34.4423H44.4496V32.0113H49.3787ZM53.5354 26.6437C53.9992 26.6437 54.3767 27.0109 54.3767 27.4621C54.3767 27.9134 53.9992 28.2807 53.5354 28.2807C53.0715 28.2807 52.6942 27.9135 52.6942 27.4621C52.6942 27.0109 53.0715 26.6437 53.5354 26.6437ZM47.7816 25.5563C48.2454 25.5563 48.6228 25.9235 48.6228 26.3748C48.6228 26.8262 48.2454 27.1934 47.7816 27.1934C47.3177 27.1934 46.9404 26.8262 46.9404 26.3748C46.9403 25.9235 47.3177 25.5563 47.7816 25.5563ZM51.0297 56.7265C51.4936 56.7265 51.871 57.0938 51.871 57.5451C51.871 57.9964 51.4936 58.3637 51.0297 58.3637C50.5659 58.3637 50.1885 57.9965 50.1885 57.5451C50.1885 57.0938 50.5659 56.7265 51.0297 56.7265ZM51.5865 49.2964C52.0504 49.2964 52.4278 49.6636 52.4278 50.115C52.4278 50.5663 52.0504 50.9336 51.5865 50.9336C51.1227 50.9336 50.7453 50.5664 50.7453 50.115C50.7453 49.6637 51.1227 49.2964 51.5865 49.2964ZM52.6074 44.1995C53.0712 44.1995 53.4487 44.5667 53.4487 45.0181C53.4487 45.4695 53.0712 45.8367 52.6074 45.8367C52.1435 45.8367 51.7661 45.4695 51.7661 45.0181C51.7661 44.5667 52.1435 44.1995 52.6074 44.1995ZM47.8744 38.7629C48.3383 38.7629 48.7157 39.1301 48.7157 39.5815C48.7157 40.0327 48.3383 40.4 47.8744 40.4C47.4105 40.4 47.0331 40.0328 47.0331 39.5815C47.0331 39.1301 47.4105 38.7629 47.8744 38.7629Z" fill="white"/>
</g>
</g>
</g>
</g>
</svg>
