<svg width="82" height="81" viewBox="0 0 82 81" fill="none" xmlns="http://www.w3.org/2000/svg">
<g id="Automated Trading Bots Icon">
<path id="Ellipse 142" d="M81.5 40.5C81.5 62.5856 63.3733 80.5 41 80.5C18.6267 80.5 0.5 62.5856 0.5 40.5C0.5 18.4144 18.6267 0.5 41 0.5C63.3733 0.5 81.5 18.4144 81.5 40.5Z" stroke="white" fill="#1295D2"/>
<g id="Group">
<path id="Vector" d="M48.2797 35.9885L46.8619 35.6991L47.7421 34.3644C47.9197 34.0943 47.8838 33.7363 47.655 33.5075L45.8433 31.6951C45.6138 31.4656 45.2558 31.4303 44.9857 31.6086L43.7788 32.4063L43.4561 30.8382C43.3909 30.5215 43.1121 30.2939 42.7888 30.2939H40.2266C39.9033 30.2939 39.6238 30.5215 39.5593 30.8382L39.2685 32.256L37.9346 31.3758C37.6651 31.1982 37.3065 31.2334 37.0776 31.4629L35.2633 33.2779C35.0344 33.5068 34.9978 33.8654 35.1768 34.1356L35.9738 35.3425L34.4089 35.6625C34.0916 35.727 33.864 36.0064 33.864 36.3298V38.8946C33.864 39.2179 34.0916 39.4974 34.4089 39.5619L35.8274 39.852L34.9465 41.186C34.7689 41.4561 34.8048 41.8141 35.0336 42.0429L36.8453 43.8553C37.0748 44.0848 37.4335 44.1201 37.7022 43.9424L38.9125 43.1433L39.2325 44.7095C39.297 45.0268 39.5758 45.2544 39.8998 45.2544H42.4646C42.788 45.2544 43.0674 45.0268 43.1319 44.7095L43.422 43.2904L44.7534 44.1713C45.0235 44.3496 45.3814 44.3143 45.611 44.0847L47.4253 42.2724C47.6542 42.0441 47.6907 41.6856 47.5124 41.4154L46.7147 40.2078L48.2789 39.8885C48.5962 39.8239 48.8245 39.5452 48.8245 39.2211V36.6557C48.8246 36.3318 48.5971 36.053 48.2797 35.9885ZM47.462 38.6651L46.0422 38.9545C45.8107 39.0011 45.6204 39.1647 45.5392 39.3856C45.4707 39.5706 45.3935 39.7422 45.3104 39.8946C45.1893 40.1155 45.1999 40.3863 45.339 40.5965L46.0689 41.7016L45.0416 42.7282L43.854 41.9425C43.6584 41.8121 43.4075 41.7941 43.1953 41.8906C43.003 41.9784 42.8247 42.0456 42.649 42.0962C42.4055 42.166 42.2206 42.3656 42.17 42.6144L41.9085 43.8919H40.4562L40.1667 42.4768C40.1201 42.2485 39.9605 42.0603 39.7429 41.9771C39.5599 41.9066 39.3943 41.8294 39.236 41.7409C39.0144 41.6151 38.7403 41.6258 38.5267 41.7655L37.4156 42.4987L36.3903 41.4727L37.2147 40.2239C37.3411 40.0323 37.3624 39.7901 37.2713 39.5792C37.2034 39.4209 37.1442 39.2579 37.0956 39.0915C37.0244 38.8487 36.8255 38.6657 36.578 38.6152L35.2267 38.3384V36.886L36.7416 36.5759C36.9685 36.53 37.1561 36.3717 37.2399 36.1554C37.2958 36.0131 37.3617 35.874 37.4342 35.7416C37.5566 35.5194 37.5453 35.2486 37.4056 35.037L36.6199 33.8481L37.6485 32.8195L38.9558 33.6824C39.1461 33.8082 39.3869 33.8294 39.5986 33.7403C39.7396 33.6798 39.886 33.6259 40.0337 33.5787C40.2685 33.5034 40.4442 33.3078 40.4934 33.067L40.7822 31.6565H42.2332L42.5453 33.1741C42.5919 33.4017 42.7515 33.59 42.9691 33.6731C43.1161 33.7296 43.2565 33.7922 43.3956 33.866C43.6165 33.9831 43.8826 33.9712 44.0915 33.8328L45.2732 33.0517L46.2985 34.0776L45.4714 35.3318C45.341 35.5293 45.323 35.7809 45.4229 35.9951C45.4947 36.1495 45.5552 36.3111 45.6078 36.4761C45.6824 36.7117 45.8786 36.8887 46.1208 36.9378L47.4621 37.2119L47.462 38.6651Z" fill="white"/>
<path id="Vector_2" d="M41.3444 34.4794C39.528 34.4794 38.0503 35.9571 38.0503 37.7741C38.0503 39.5904 39.528 41.0681 41.3444 41.0681C43.1614 41.0681 44.639 39.5905 44.639 37.7741C44.639 35.9572 43.1614 34.4794 41.3444 34.4794ZM41.3444 39.7056C40.2792 39.7056 39.4129 38.8393 39.4129 37.7741C39.4129 36.7089 40.2792 35.842 41.3444 35.842C42.4096 35.842 43.2764 36.709 43.2764 37.7741C43.2764 38.8392 42.4095 39.7056 41.3444 39.7056Z" fill="white"/>
<path id="Vector_3" d="M21 21.7019C21 22.9538 21.8604 23.9999 23.0179 24.3051V27.0151C23.0179 27.3917 23.3227 27.6964 23.6992 27.6964H28.0251C28.0141 28.2183 28.0804 28.7633 28.2514 29.3265C24.8802 29.9818 21.8058 31.21 21.8058 35.8367C21.8058 39.514 24.797 42.5053 28.4743 42.5053H31.9938C33.4611 45.4177 35.9972 46.272 36.2312 50.2735C34.8402 50.7743 34.3762 52.5152 35.397 53.633C34.6544 54.4458 34.6667 55.6445 35.4027 56.4435C34.1652 57.787 35.1267 59.9394 36.9333 59.9394H38.0723C38.3867 61.458 39.7339 62.6027 41.3444 62.6027C42.9548 62.6027 44.302 61.458 44.6165 59.9394H45.7561C47.562 59.9394 48.5233 57.7869 47.2863 56.4435C48.0231 55.6435 48.0331 54.4445 47.292 53.633C48.2891 52.5407 47.8745 50.8298 46.5212 50.2931C46.7077 46.2424 49.1974 45.4629 50.6862 42.5054H54.2123C60.6457 42.5054 62.8266 34.5537 58.9814 31.0586V27.0052C60.1393 26.7003 61 25.6539 61 24.4018C61 22.9121 59.7878 21.7006 58.2981 21.7006C56.8085 21.7006 55.5969 22.9121 55.5969 24.4018C55.5969 25.6554 56.4591 26.703 57.6189 27.0065V30.1267C56.5377 29.5706 55.402 29.3313 54.577 29.2326C55.0736 23.8387 50.7747 19 45.1952 19C41.7482 19 38.6205 20.8629 36.9658 23.8243C34.0611 21.1427 29.3588 22.7786 28.2475 26.3339H24.3806V24.3068C25.5407 24.0035 26.4032 22.9558 26.4032 21.7019C26.4032 20.2122 25.1917 19.0007 23.702 19.0007C22.2124 19.0007 21 20.2122 21 21.7019ZM41.3444 61.2402C40.4926 61.2402 39.771 60.6959 39.4925 59.9394H43.1962C42.9177 60.6959 42.1961 61.2402 41.3444 61.2402ZM45.7561 58.5769H36.9333C36.5334 58.5769 36.208 58.2515 36.208 57.8523C36.208 57.4524 36.5333 57.1271 36.9333 57.1271H45.7561C46.1553 57.1271 46.4807 57.4524 46.4807 57.8523C46.4806 58.2515 46.1553 58.5769 45.7561 58.5769ZM45.7561 55.7599H36.9333C36.5334 55.7599 36.208 55.4346 36.208 55.0347C36.208 54.6457 36.5188 54.3318 36.9047 54.316C36.9145 54.316 36.9234 54.3188 36.9332 54.3188H45.7561C45.7659 54.3188 45.7749 54.3161 45.7846 54.316C46.17 54.3318 46.4807 54.6457 46.4807 55.0347C46.4806 55.4345 46.1553 55.7599 45.7561 55.7599ZM45.7846 52.9504C45.7749 52.9503 45.7659 52.9475 45.7561 52.9475H36.9333C36.9235 52.9475 36.9145 52.9503 36.9048 52.9504C36.5188 52.9346 36.2081 52.6207 36.2081 52.231C36.2081 51.8312 36.5334 51.5058 36.9333 51.5058H45.7561C46.1553 51.5058 46.4807 51.8311 46.4807 52.231C46.4806 52.6207 46.17 52.9346 45.7846 52.9504ZM45.1567 50.114H37.5959C37.2042 44.2852 32.2387 43.9807 32.2387 37.8055C32.2387 32.3842 36.9636 28.1337 42.4055 28.7577C46.5486 29.2261 49.9051 32.5707 50.3868 36.7097C51.1997 43.7161 45.5255 43.888 45.1567 50.114ZM56.9595 24.4018C56.9595 23.6639 57.5603 23.0632 58.2981 23.0632C59.0366 23.0632 59.6374 23.6639 59.6374 24.4018C59.6374 25.1403 59.0366 25.7411 58.2981 25.7411C57.5603 25.7411 56.9595 25.1403 56.9595 24.4018ZM29.7983 29.5621C27.7577 25.1902 33.7958 21.7045 36.5886 25.4371C36.7349 25.632 36.9711 25.7431 37.2167 25.7045C37.4589 25.6752 37.6665 25.5183 37.7616 25.2941C39.0277 22.298 41.9458 20.3626 45.1952 20.3626C50.1907 20.3626 53.9773 24.9064 53.1372 29.7337C53.0826 30.0457 53.2517 30.3544 53.5437 30.4782C53.6588 30.5261 53.7493 30.5307 53.8538 30.5361C54.801 30.5827 56.4451 30.8177 57.7191 31.7943C57.7981 31.9308 57.9161 32.0384 58.0661 32.0937C61.08 34.9236 59.2284 41.1428 54.2124 41.1428H51.266C51.753 39.6915 51.9232 38.129 51.7401 36.5527C51.1865 31.7903 47.325 27.9427 42.5586 27.4031C36.2064 26.6928 30.8761 31.6602 30.8761 37.8055C30.8761 38.9583 31.0719 40.0799 31.4286 41.1428H28.4743C25.5489 41.1428 23.1683 38.7623 23.1683 35.8368C23.1683 32.2301 25.2314 31.2167 29.2959 30.5215C29.5048 30.4856 29.6858 30.3545 29.7843 30.1662C29.8827 29.9779 29.8881 29.7543 29.7983 29.5621ZM25.0405 21.7019C25.0405 22.4402 24.4399 23.0408 23.7023 23.0412C23.7013 23.0412 23.7004 23.0405 23.6993 23.0405C23.6993 23.0405 23.6985 23.0407 23.698 23.0407C22.9614 23.0385 22.3627 22.439 22.3627 21.7019C22.3627 20.964 22.9634 20.3633 23.7019 20.3633C24.4398 20.3633 25.0405 20.964 25.0405 21.7019Z" fill="white"/>
</g>
</g>
</svg>