<svg width="80" height="96" viewBox="0 0 80 96" fill="none" xmlns="http://www.w3.org/2000/svg">
<g id="Group">
<path id="Vector" d="M40.0337 0C0.734912 0.368985 -14.817 50.3954 17.2366 73.0274C16.7792 73.3681 16.4816 73.9115 16.4816 74.5258V93.835C16.4816 94.8672 17.3185 95.7042 18.3508 95.7042H27.8073C28.8396 95.7042 29.6765 94.8672 29.6765 93.835V92.7578H32.1896C32.7728 92.7578 33.3336 92.947 33.7607 93.2843C35.0615 94.3227 37.2519 95.5605 40.2991 95.5605H48.6811C52.4485 95.5605 55.5389 92.7428 55.8893 88.998L57.2219 79.1751C57.2258 79.1452 57.2294 79.1151 57.232 79.0852C57.3116 78.1651 57.2195 77.2614 56.9647 76.4026C95.483 57.7622 82.877 0.668247 40.0337 0ZM20.2201 91.9658V76.3948H25.9377L25.938 91.9658H20.2201ZM53.5108 78.7218L52.1793 88.5363C52.1754 88.5659 52.172 88.5956 52.1694 88.6255C52.0103 90.4478 50.5108 91.8222 48.6811 91.8222H40.2991C38.3338 91.8222 36.927 91.0286 36.0855 90.357C34.1161 88.7677 32.0308 89.0246 29.6763 89.0195V76.1611C31.0902 75.7662 32.1326 74.7159 32.8927 73.5031C33.32 72.8285 39.8903 62.4124 39.8903 62.4124L41.2004 63.0872C42.7392 63.9022 43.2977 65.732 42.5111 67.2734L40.6879 70.5288C39.6187 72.4633 41.0537 74.9546 43.2962 74.9546H50.0198C52.0294 74.9546 53.662 76.7182 53.5108 78.7218ZM70.0397 60.5675C66.2491 66.1062 61.0662 70.4507 54.993 73.1958C53.6595 71.933 51.8559 71.2159 50.0194 71.2159H44.5888L44.8263 70.7914C67.7038 67.6154 79.1232 39.3885 64.7487 21.2136C60.714 15.9346 54.9934 12.0212 48.6405 10.1946C47.6476 9.90913 46.6128 10.482 46.3275 11.4744C46.0423 12.4666 46.6152 13.5021 47.6074 13.7874C53.1949 15.3942 58.2274 18.8377 61.7785 23.4838C73.8326 38.6772 65.2824 62.3986 46.5849 66.6339C46.9236 63.8701 45.4512 61.1025 42.9855 59.8019L40.0824 58.3018C39.1826 57.8366 38.0872 58.1987 37.5839 59.0604L32.9005 66.4821C6.3209 58.9035 5.94874 21.9075 32.379 13.8113C33.3701 13.5229 33.9398 12.4857 33.6514 11.4942C33.363 10.503 32.3255 9.93287 31.3343 10.2217C1.83383 19.2197 1.52335 60.2845 30.8249 69.7712L29.5234 71.8337C29.0295 72.4771 28.6435 72.6448 27.7919 72.6563H23.9387C-10.2057 55.1957 1.63177 4.30594 40.034 3.73845C68.7993 3.36273 86.5827 37.0732 70.0397 60.5675Z" fill="#1295D2"/>
<path id="Vector_2" d="M40.0337 19.925C39.4077 19.925 38.8234 20.2383 38.477 20.7596L32.7097 29.4369L22.6748 32.2406C21.4119 32.5931 20.896 34.1713 21.7127 35.2016L28.183 43.368L27.7486 53.7779C27.694 55.0877 29.0346 56.067 30.2674 55.6079L40.0337 51.9779L49.7998 55.6079C51.0316 56.0666 52.3734 55.0883 52.3188 53.7779L51.8844 43.368L58.3547 35.2016C59.1712 34.1711 58.6553 32.5931 57.3926 32.2406L47.3579 29.4369L41.5906 20.7596C41.2438 20.2383 40.6597 19.925 40.0337 19.925ZM45.6828 32.8503L53.6779 35.0842L48.5226 41.591C48.2442 41.9422 48.1014 42.3818 48.1201 42.8297L48.4663 51.124L40.6851 48.2318C40.2647 48.0755 39.8025 48.0755 39.3826 48.2318L31.6012 51.124L31.9474 42.8297C31.9661 42.3818 31.8233 41.9422 31.545 41.591L26.3897 35.0842L34.3849 32.8503C34.8167 32.7297 35.1905 32.4579 35.4386 32.0847L40.0339 25.171L44.6292 32.0847C44.877 32.4581 45.2511 32.7299 45.6828 32.8503Z" fill="#1295D2"/>
<path id="Vector_3" d="M38.3084 11.5703C38.9417 13.0919 41.1752 13.0698 41.7741 11.5316C42.3971 9.9312 40.6079 8.38348 39.1129 9.23005C38.3037 9.6882 37.9497 10.7103 38.3084 11.5703Z" fill="#1295D2"/>
</g>
</svg>
