<svg width="80" height="88" viewBox="0 0 80 88" fill="none" xmlns="http://www.w3.org/2000/svg">
<path id="Vector" d="M31.3558 12.4182C31.6649 13.1223 31.3386 13.9293 30.6518 14.2384C25.0023 16.7111 21.1043 22.2061 20.7609 28.2162C20.7094 28.9545 20.1084 29.5212 19.3872 29.5212C19.3528 29.5212 19.3356 29.5212 19.3013 29.5212C18.5457 29.4697 17.9619 28.8172 17.9963 28.0616C18.4084 21.0041 22.9417 14.5819 29.5356 11.697C30.2396 11.4051 31.0467 11.7142 31.3558 12.4182ZM21.1215 32.8697C20.9498 32.1313 20.2114 31.6677 19.4558 31.8394C18.7175 32.0111 18.2538 32.7495 18.4255 33.4879C18.8033 35.1535 19.4043 36.7505 20.2114 38.2616C20.469 38.7252 20.9326 38.9828 21.4306 38.9828C21.6538 38.9828 21.877 38.9313 22.0831 38.8111C22.7528 38.4505 23.0104 37.6091 22.6498 36.9394C21.9629 35.6687 21.4478 34.2949 21.1215 32.8697ZM66.4718 24.8849C66.5749 26.2758 66.3688 27.7182 65.8021 29.0576C63.8446 33.6424 58.2466 35.9777 53.6618 33.9858C50.1072 32.4404 47.7204 28.6798 48.0295 24.7818C48.0982 23.7859 48.3214 22.8071 48.7163 21.8626C50.6224 17.2606 56.2547 14.9768 60.8567 16.9C64.1021 18.2566 66.2143 21.4849 66.4718 24.8849ZM63.7072 25.0394C63.6213 23.4081 62.9516 21.794 61.5951 20.5748C59.4486 18.6515 56.1173 18.4283 53.7133 20.0081C51.7901 21.2788 50.6739 23.5455 50.7941 25.8465C51.0173 30.0879 55.5678 33.0242 59.5173 31.5475C62.3335 30.5 63.8446 27.7354 63.7072 25.0394ZM79.7799 32.1656L77.8051 36.8363C77.3071 38.0212 75.8991 38.5878 74.7142 38.0727L70.0264 36.0979C69.3395 36.9222 68.5839 37.6606 67.7769 38.3303C67.7769 38.3303 69.7001 43.0353 69.7001 43.0525C70.1809 44.2373 69.5971 45.6454 68.4122 46.109C67.4678 46.4868 66.5405 46.8817 65.6133 47.2939C64.7375 47.6716 63.8446 48.1868 62.8658 48.1868C61.9385 48.1868 61.0799 47.6545 60.7022 46.7615L58.7618 42.0222C58.5214 42.0393 58.2809 42.0393 58.0405 42.0565C56.5294 44.5464 54.6062 46.7444 52.3052 48.5646C48.8537 51.2949 46.8618 55.2443 46.8618 59.4171V63.9847H47.6345C48.9224 63.9847 49.9699 65.0322 49.9699 66.3201V78.3059C49.9699 79.5937 48.9224 80.6412 47.6345 80.6412H46.1921V81.4311C46.1921 84.8311 43.4275 87.5957 40.0275 87.5957H34.0689C30.6689 87.5957 27.9043 84.8311 27.9043 81.4311V80.6412H26.4447C25.1568 80.6412 24.1094 79.5937 24.1094 78.3059C24.1094 74.3049 24.1094 70.3211 24.1094 66.3201C24.1094 65.0322 25.1568 63.9847 26.4447 63.9847H27.2174V60.9968C26.8568 61.3574 26.3245 61.5635 25.775 61.5463C25.2255 61.5292 24.6932 61.2888 24.3154 60.8766L22.1346 58.5928C21.6366 58.8332 21.1215 59.0221 20.6063 59.1767L20.5377 62.3877C20.5205 63.4867 19.5932 64.3797 18.4942 64.3797C18.4771 64.3797 18.4599 64.3797 18.4427 64.3797L14.9569 64.311C13.8407 64.2766 12.965 63.3837 12.965 62.2504L13.0336 59.0221C13.0336 58.9534 11.5054 58.4039 11.5397 58.3696L9.22154 60.5847C8.3973 61.3574 7.14377 61.3403 6.35387 60.5504L3.9155 58.009C3.14277 57.1847 3.15994 55.914 3.94984 55.1413L6.28518 52.909C6.06195 52.4282 5.85589 51.913 5.70135 51.3979L2.49025 51.3292C1.37409 51.312 0.463994 50.3504 0.498337 49.2343L0.567023 45.7484C0.601367 44.6151 1.56298 43.7222 2.66197 43.7565L5.85589 43.8252C6.04478 43.31 6.25084 42.8121 6.50842 42.3313L4.29327 40.0303C3.50338 39.2232 3.52055 37.9525 4.32762 37.1454L6.86902 34.7242C7.69326 33.9515 8.96396 33.9687 9.75386 34.7586L11.9862 37.0939C12.4842 36.8535 12.9821 36.6646 13.4973 36.5101C12.6387 33.6939 12.2781 30.7576 12.4498 27.7869C13.171 15.4061 23.0619 5.48089 35.4598 4.70816C38.6881 4.5021 41.9164 4.94857 44.9214 5.96169C45.1618 5.46372 45.5739 5.0516 46.1063 4.82837L50.7941 2.92231C51.979 2.44151 53.3699 3.02534 53.8507 4.21019L55.7739 8.93239C56.8214 8.82936 57.886 8.84653 58.9335 8.94956L60.9254 4.24453C61.4062 3.07686 62.7799 2.49302 63.9819 2.991C63.9819 2.991 68.6526 4.94857 68.6526 4.96574C69.8375 5.46372 70.387 6.87179 69.889 8.03946L67.9142 12.7273C68.7385 13.397 69.4769 14.1526 70.1294 14.9768L74.8688 13.0192C76.0708 12.5384 77.4445 13.1051 77.9253 14.3071C77.9253 14.3071 79.8314 18.9778 79.8314 18.995C80.3122 20.1798 79.7283 21.5707 78.5435 22.0515L73.8385 23.9576C73.9415 25.0222 73.9243 26.0697 73.8213 27.1172L78.5263 29.1091C79.694 29.5899 80.2607 30.9636 79.7799 32.1656ZM27.0457 57.3393C27.1316 57.1847 27.1316 56.8413 26.9255 56.6524L24.8821 54.506C24.4356 54.0423 24.3669 53.3211 24.7275 52.7888C24.8649 52.5827 24.9851 52.3938 25.0881 52.1878C24.6245 51.4494 24.0922 50.7454 23.4912 50.11C23.4912 50.1272 23.474 50.1444 23.474 50.1615C23.371 50.4535 23.2508 50.7282 23.1134 50.9858C21.877 53.3211 19.3013 54.8322 16.6569 54.6433C14.167 54.4544 11.969 52.9949 10.8872 50.7454C10.1316 49.0969 10.0286 47.208 10.6468 45.508C11.4195 43.3787 13.3084 41.7131 15.5064 41.1979C15.3862 41.2323 14.5619 39.309 14.4589 39.0858C13.7549 39.2919 13.0852 39.5838 12.4326 39.9787C11.8831 40.305 11.1619 40.2191 10.7155 39.7383L8.27709 37.1798L6.78316 38.605L9.22154 41.1464C9.668 41.61 9.73669 42.3313 9.37608 42.8636C8.84376 43.6878 8.44881 44.5807 8.19124 45.5595C8.03669 46.1777 7.47003 46.6242 6.81751 46.607L3.28014 46.5383L3.26297 48.5474L6.80033 48.6333C7.43568 48.6504 7.98518 49.0969 8.12255 49.7151C8.32861 50.6939 8.68921 51.6211 9.18719 52.4625C9.51345 53.012 9.41042 53.7161 8.94679 54.1625L6.38821 56.6009L7.81346 58.0948L10.372 55.6565C10.8357 55.21 11.5569 55.1413 12.0892 55.5019C12.8791 56.0342 13.8064 56.4464 14.7508 56.6696C15.3862 56.8241 15.8155 57.3908 15.8155 58.0433L15.7468 61.5807L17.8074 61.6322L17.876 58.112C17.8932 57.4767 18.3397 56.9272 18.975 56.7898C19.9366 56.5837 20.8467 56.2231 21.7225 55.7251C22.272 55.3989 22.976 55.5019 23.4225 55.9655L25.8609 58.507C25.8437 58.4898 27.0457 57.3393 27.0457 57.3393ZM15.3346 44.1686C13.566 45.0272 12.5872 47.1393 13.1882 49.0454C13.8579 51.1575 16.1932 52.3423 18.3053 51.707C19.0781 51.4666 19.7649 50.9686 20.2629 50.3332C20.5033 50.0242 20.7094 49.6807 20.8467 49.3029C20.9154 49.1141 21.2589 48.1181 21.0871 47.9807C19.6276 46.7272 18.3225 45.3363 17.1892 43.7908C16.7255 43.7737 16.2791 43.8252 15.8498 43.9626C15.6609 44.0141 15.4892 44.0828 15.3346 44.1686ZM43.4103 80.6412H30.6518V81.4311C30.6518 83.3028 32.18 84.8311 34.0517 84.8311H40.0103C41.882 84.8311 43.4103 83.3028 43.4103 81.4311V80.6412ZM47.2052 73.6867H26.874V77.8594H47.2052V73.6867ZM26.874 66.7494V70.9221H47.2052V66.7494H26.874ZM49.3517 47.4484L45.883 45.9888C44.6982 45.4908 44.1315 44.1171 44.6295 42.9323L46.6042 38.2272C45.7972 37.5575 45.0588 36.802 44.3891 35.9777C44.3891 35.9777 39.684 37.901 39.6669 37.901C38.482 38.3818 37.1083 37.7979 36.6103 36.6303L34.6871 31.9081C34.275 30.8434 34.6699 29.6757 35.5629 29.0747C35.7002 28.9889 35.8376 28.9202 35.975 28.8515L40.68 26.9283C40.577 25.8636 40.5941 24.8162 40.6972 23.7515L36.0093 21.7768C34.8245 21.296 34.2578 19.9222 34.7558 18.7202L36.7305 14.0495C37.2113 12.8819 38.6366 12.3152 39.7871 12.796L44.4921 14.7879C45.1618 13.9809 45.9174 13.2253 46.7416 12.5728L45.282 9.00108C42.2426 7.74755 38.9972 7.21523 35.6144 7.42129C24.7962 8.09098 15.8326 17.0889 15.1973 27.8899C15.0427 30.6202 15.369 33.3161 16.1932 35.9091C17.4811 39.9616 20.0053 43.602 23.3195 46.2636L23.5599 46.4525C25.3285 47.8262 26.771 49.509 27.8528 51.4322C30.0679 55.3989 29.9477 59.5888 29.9477 63.9675H44.0457V59.3999C44.08 54.9009 45.986 50.6252 49.3517 47.4484ZM77.0496 31.4959L71.7607 29.2636C71.1597 29.0061 70.8334 28.3879 70.9365 27.7525C71.194 26.2929 71.194 24.799 70.9536 23.3051C70.8506 22.6697 71.194 22.0515 71.795 21.8111L77.1011 19.6475L75.5041 15.7495L70.1809 17.9132C69.5799 18.1536 68.893 17.9475 68.5324 17.4324C67.6738 16.2132 66.6264 15.1485 65.4072 14.2728C64.892 13.895 64.686 13.2081 64.9436 12.6071L67.1759 7.31825L63.3122 5.66978L61.0799 10.9586C60.8224 11.5425 60.2042 11.8859 59.5688 11.7829C58.0921 11.5425 56.5981 11.5253 55.1214 11.7657C54.486 11.8687 53.8678 11.5253 53.6274 10.9243L51.4638 5.61826L47.5487 7.19805C48.0123 8.34855 48.4931 9.51623 48.9567 10.6667C49.0426 10.89 50.2103 13.4829 50.1244 13.5516C48.2527 14.8738 46.7588 16.3505 45.4194 18.2051L39.1174 15.5435L37.4861 19.4243C38.6022 19.9909 39.7699 20.4546 40.9376 20.901C41.1952 21.0041 43.8224 21.8111 43.7881 22.0859C43.3931 24.3354 43.3931 26.4475 43.7537 28.7141L37.4346 31.2899L39.0144 35.1878C40.2851 34.6727 41.5386 34.1575 42.8093 33.6424C42.9295 33.5909 45.282 32.5262 45.3335 32.6121C46.6557 34.4838 48.1497 35.9949 49.987 37.3171C49.1113 39.4121 48.2184 41.507 47.3426 43.602L51.2234 45.2333L53.885 38.9141C55.7395 39.2575 57.5254 39.4636 59.4143 39.1545C60.0496 39.0515 60.685 39.4121 60.9254 39.9959L63.089 45.3191L67.0042 43.7222L64.8405 38.4161C64.6001 37.8151 64.789 37.1454 65.3213 36.7676C66.5405 35.9091 67.6052 34.8444 68.4981 33.6252C68.8759 33.1101 69.5627 32.9212 70.1466 33.1616L75.4354 35.3939L77.0496 31.4959ZM4.72256 11.8516L11.5569 16.0415C11.7801 16.1788 12.0377 16.2475 12.2781 16.2475C12.7417 16.2475 13.1882 16.0071 13.4629 15.595C13.8579 14.9425 13.6518 14.1011 12.9993 13.6889L6.16498 9.49905C5.51246 9.10411 4.67105 9.31017 4.25893 9.96269C3.86398 10.598 4.07004 11.4566 4.72256 11.8516ZM17.0346 9.10411C17.2922 9.56774 17.7558 9.82532 18.2538 9.82532C18.4771 9.82532 18.7003 9.7738 18.9063 9.6536C19.576 9.293 19.8336 8.45158 19.4558 7.78189L15.6437 0.724341C15.2831 0.0546463 14.4417 -0.202928 13.772 0.174848C13.1023 0.535453 12.8448 1.37686 13.2225 2.04656L17.0346 9.10411ZM9.37608 24.2323H9.41043C10.1488 24.2323 10.767 23.6313 10.7842 22.8929C10.8013 22.1374 10.2003 21.502 9.44477 21.4677L1.42561 21.2616C0.687225 21.2445 0.0347023 21.8455 0.000358995 22.601C-0.0168127 23.3566 0.584195 23.9919 1.33975 24.0263L9.37608 24.2323Z" fill="white"/>
</svg>
