<svg width="80" height="80" viewBox="0 0 80 80" fill="none" xmlns="http://www.w3.org/2000/svg">
<g id="Group 2035">
<path id="Vector" d="M20.8807 40.0001C20.8807 45.9337 23.5975 51.2449 27.8535 54.7545C27.9023 54.8001 27.9559 54.8385 28.0111 54.8777C31.2927 57.5281 35.4631 59.1193 39.9999 59.1193C44.5271 59.1193 48.6895 57.5345 51.9687 54.8945C52.0343 54.8489 52.0967 54.8025 52.1535 54.7481C56.4047 51.2385 59.1191 45.9305 59.1191 39.9993C59.1191 29.4569 50.5415 20.8801 39.9999 20.8801C29.4575 20.8809 20.8807 29.4577 20.8807 40.0001ZM30.8663 53.0185C32.4639 49.4385 36.0015 47.1001 39.9999 47.1001C43.9975 47.1001 47.5359 49.4401 49.1327 53.0185C46.5447 54.8401 43.3983 55.9193 39.9999 55.9193C36.6015 55.9193 33.4551 54.8401 30.8663 53.0185ZM33.9607 37.8609C33.9607 34.5305 36.6695 31.8217 39.9999 31.8217C43.3295 31.8217 46.0391 34.5305 46.0391 37.8609C46.0391 41.1905 43.3295 43.9001 39.9999 43.9001C36.6695 43.9001 33.9607 41.1905 33.9607 37.8609ZM55.9191 40.0001C55.9191 44.1897 54.2799 47.9953 51.6247 50.8409C50.2743 48.3257 48.1671 46.3529 45.6383 45.1633C47.8231 43.4721 49.2391 40.8321 49.2391 37.8609C49.2391 32.7665 45.0943 28.6217 39.9999 28.6217C34.9055 28.6217 30.7607 32.7665 30.7607 37.8609C30.7607 40.8321 32.1759 43.4721 34.3607 45.1633C31.8319 46.3521 29.7247 48.3257 28.3743 50.8409C25.7191 47.9953 24.0799 44.1905 24.0799 40.0001C24.0799 31.2217 31.2215 24.0809 39.9991 24.0809C48.7767 24.0809 55.9191 31.2217 55.9191 40.0001Z" fill="#1295D2"/>
<path id="Vector_2" d="M33.444 7.4504C32.7936 6.852 31.7808 6.8928 31.1832 7.5448C30.5848 8.1952 30.6272 9.2072 31.2776 9.8056L38.9168 16.8336C38.9464 16.8608 38.9792 16.88 39.0104 16.904C39.0384 16.9264 39.064 16.9528 39.0936 16.9728C39.1072 16.9816 39.1216 16.9896 39.1352 16.9984C39.1816 17.0288 39.2304 17.052 39.2792 17.0768C39.2864 17.0808 39.2928 17.0848 39.3 17.0888C39.3248 17.1008 39.348 17.1176 39.3728 17.128C39.3824 17.132 39.3936 17.1344 39.4032 17.1384C39.4616 17.1616 39.5208 17.1768 39.5808 17.1936C39.6184 17.204 39.6552 17.2176 39.6944 17.2256C39.7952 17.2448 39.8976 17.2568 40 17.2568C40.1024 17.2568 40.2048 17.2456 40.3056 17.2256C40.3448 17.2184 40.3808 17.204 40.4192 17.1936C40.4792 17.1768 40.5384 17.1616 40.5968 17.1384C40.6072 17.1344 40.6176 17.132 40.628 17.1272C40.6496 17.1176 40.6696 17.1032 40.6912 17.0936C40.7016 17.0888 40.7104 17.0824 40.7208 17.0776C40.7704 17.0528 40.8192 17.0288 40.8664 16.9984C40.8808 16.9896 40.8944 16.9816 40.908 16.9728C40.936 16.9536 40.9608 16.928 40.988 16.9072C41.02 16.8816 41.0544 16.8616 41.0848 16.8336L48.724 9.8056C49.3744 9.2072 49.416 8.1952 48.8176 7.5448C48.2192 6.8944 47.208 6.852 46.5568 7.4504L41.6 12.0104V1.6C41.6 0.7168 40.8832 0 40 0C39.1168 0 38.4 0.7168 38.4 1.6V12.0104L33.444 7.4504Z" fill="#1295D2"/>
<path id="Vector_3" d="M46.5552 72.5496C46.8632 72.8328 47.2512 72.972 47.6384 72.972C48.0704 72.972 48.5008 72.7976 48.8168 72.4552C49.4152 71.8048 49.3728 70.7928 48.7232 70.1944L41.084 63.1664C41.0608 63.1456 41.0336 63.1304 41.0096 63.1112C40.9768 63.0848 40.9464 63.056 40.9128 63.0312C40.8944 63.0184 40.8752 63.0088 40.8568 62.996C40.8208 62.9736 40.7832 62.9544 40.7456 62.9344C40.7112 62.9168 40.6776 62.8952 40.6424 62.88C40.6216 62.8712 40.6 62.864 40.5784 62.856C40.5384 62.84 40.4976 62.8288 40.456 62.8168C40.42 62.8056 40.3848 62.7928 40.3472 62.7848C40.3248 62.7792 40.3016 62.776 40.2792 62.772C40.2376 62.7648 40.1952 62.7608 40.1528 62.7568C40.1128 62.7528 40.0736 62.748 40.0336 62.7464C40.0224 62.7464 40.0112 62.7432 40 62.7432C39.9888 62.7432 39.9776 62.7464 39.9664 62.7464C39.9264 62.748 39.8864 62.7528 39.8464 62.7576C39.8048 62.7616 39.7632 62.7648 39.7224 62.772C39.6992 62.776 39.6752 62.7792 39.6528 62.7848C39.616 62.7928 39.58 62.8064 39.544 62.8176C39.504 62.8296 39.464 62.84 39.4248 62.856C39.4024 62.8648 39.38 62.872 39.3584 62.8808C39.3224 62.8968 39.2888 62.9176 39.2544 62.936C39.2184 62.9552 39.1816 62.9736 39.1464 62.9952C39.1272 63.008 39.1072 63.0184 39.088 63.032C39.0536 63.056 39.0224 63.0848 38.9896 63.1128C38.9664 63.1312 38.94 63.1456 38.9176 63.1664L31.2784 70.1944C30.628 70.7928 30.5856 71.8048 31.184 72.4552C31.4992 72.7984 31.9296 72.972 32.3616 72.972C32.7488 72.972 33.1368 72.832 33.4448 72.5496L38.4 67.9896V78.4C38.4 79.2832 39.1168 80 40 80C40.8832 80 41.6 79.2832 41.6 78.4V67.9896L46.5552 72.5496Z" fill="#1295D2"/>
<path id="Vector_4" d="M1.6 41.6H12.0104L7.4512 46.5552C6.8528 47.2056 6.8952 48.2176 7.5456 48.816C7.8528 49.0992 8.2416 49.2384 8.6288 49.2384C9.0608 49.2384 9.4912 49.064 9.8064 48.7216L16.8344 41.0824C16.8568 41.0584 16.872 41.0304 16.8928 41.0048C16.9184 40.9736 16.9456 40.9447 16.968 40.912C16.9808 40.8944 16.992 40.8744 17.004 40.856C17.028 40.8184 17.048 40.7792 17.068 40.74C17.0856 40.7071 17.1056 40.6751 17.12 40.6415C17.1296 40.6207 17.136 40.5992 17.144 40.5784C17.1608 40.5367 17.172 40.4943 17.1848 40.4511C17.1952 40.4159 17.208 40.3815 17.216 40.3455C17.2208 40.3239 17.224 40.3015 17.228 40.2799C17.236 40.2367 17.2392 40.1944 17.2432 40.1504C17.2472 40.1104 17.2528 40.0712 17.2536 40.0312C17.2536 40.02 17.2568 40.0096 17.2568 39.9984C17.2568 39.9872 17.2536 39.9768 17.2536 39.9656C17.2528 39.9256 17.2472 39.8855 17.2432 39.8455C17.2392 39.8024 17.236 39.76 17.228 39.7168C17.224 39.6952 17.2216 39.6727 17.216 39.6511C17.208 39.6151 17.1952 39.58 17.184 39.5448C17.1712 39.5024 17.16 39.4607 17.1432 39.4191C17.1352 39.3983 17.128 39.3767 17.1192 39.356C17.104 39.3216 17.0832 39.2895 17.0656 39.2559C17.0456 39.2176 17.0264 39.1792 17.0032 39.1424C16.9904 39.1232 16.98 39.1039 16.9672 39.0855C16.944 39.0519 16.9152 39.0223 16.8888 38.9903C16.8688 38.9663 16.8544 38.9392 16.8328 38.916L9.8048 31.2768C9.2072 30.6264 8.1952 30.5848 7.544 31.1824C6.8936 31.7808 6.8512 32.7928 7.4496 33.4432L12.0104 38.4H1.6C0.7168 38.4 0 39.1168 0 40C0 40.8832 0.7168 41.6 1.6 41.6Z" fill="#1295D2"/>
<path id="Vector_5" d="M78.4 38.4H67.9896L72.5488 33.444C73.1472 32.7936 73.1048 31.7816 72.4552 31.1832C71.804 30.584 70.792 30.6272 70.1944 31.2776L63.1664 38.9168C63.1456 38.9392 63.1312 38.9656 63.112 38.9896C63.0856 39.0224 63.056 39.0536 63.0312 39.088C63.0184 39.1056 63.008 39.1248 62.996 39.144C62.9736 39.18 62.9544 39.2176 62.9344 39.2552C62.9168 39.2896 62.8952 39.3224 62.88 39.3584C62.8712 39.3784 62.864 39.4 62.8568 39.4208C62.84 39.4616 62.8288 39.5032 62.816 39.5456C62.8048 39.5816 62.7928 39.6168 62.784 39.6536C62.7792 39.6752 62.776 39.6968 62.772 39.7192C62.7648 39.7624 62.7608 39.8048 62.7568 39.848C62.7528 39.888 62.7472 39.928 62.7464 39.9688C62.7464 39.98 62.7432 39.9896 62.7432 40.0008C62.7432 40.012 62.7464 40.0216 62.7464 40.0328C62.7472 40.0736 62.7528 40.1136 62.7568 40.1536C62.7608 40.1968 62.7648 40.2392 62.772 40.2824C62.776 40.304 62.7792 40.3264 62.784 40.348C62.7928 40.384 62.8048 40.4192 62.816 40.4552C62.8288 40.4976 62.84 40.5392 62.8568 40.5808C62.8648 40.6016 62.872 40.6232 62.88 40.6432C62.896 40.6776 62.916 40.7104 62.9336 40.744C62.9536 40.7824 62.9736 40.8216 62.9968 40.8584C63.0088 40.8768 63.0192 40.896 63.032 40.9136C63.0552 40.9472 63.0832 40.9768 63.1104 41.0088C63.1296 41.0336 63.1448 41.0608 63.1664 41.0848L70.1944 48.724C70.5104 49.0672 70.9408 49.2408 71.3728 49.2408C71.7592 49.2408 72.148 49.1008 72.456 48.8184C73.1064 48.22 73.148 47.208 72.5496 46.5576L67.9896 41.6H78.4C79.2832 41.6 80 40.8832 80 40C80 39.1168 79.2832 38.4 78.4 38.4Z" fill="#1295D2"/>
<path id="Vector_6" d="M33.8888 76.8C16.9664 76.8 3.2 62.7584 3.2 45.5C3.2 44.6168 2.4832 43.9 1.6 43.9C0.7168 43.9 0 44.6168 0 45.5C0 64.5232 15.2024 80 33.8888 80C34.772 80 35.4888 79.2832 35.4888 78.4C35.4888 77.5168 34.772 76.8 33.8888 76.8Z" fill="#1295D2"/>
<path id="Vector_7" d="M46.112 3.2C63.0336 3.2 76.8 17.2408 76.8 34.5C76.8 35.3832 77.5168 36.1 78.4 36.1C79.2832 36.1 80 35.3832 80 34.5C80 15.4768 64.7976 0 46.112 0C45.2288 0 44.512 0.7168 44.512 1.6C44.512 2.4832 45.228 3.2 46.112 3.2Z" fill="#1295D2"/>
<path id="Vector_8" d="M1.6 35.4888C2.4832 35.4888 3.2 34.772 3.2 33.8888C3.2 16.9664 17.2408 3.2 34.5 3.2C35.3832 3.2 36.1 2.4832 36.1 1.6C36.1 0.7168 35.3832 0 34.5 0C15.4768 0 0 15.2024 0 33.8888C0 34.772 0.7168 35.4888 1.6 35.4888Z" fill="#1295D2"/>
<path id="Vector_9" d="M78.4 44.5119C77.5168 44.5119 76.8 45.2287 76.8 46.1119C76.8 63.0335 62.7584 76.7999 45.5 76.7999C44.6168 76.7999 43.9 77.5167 43.9 78.3999C43.9 79.2831 44.6168 79.9999 45.5 79.9999C64.5232 79.9999 80 64.7975 80 46.1119C80 45.2279 79.2832 44.5119 78.4 44.5119Z" fill="#1295D2"/>
</g>
</svg>
