<svg width="80" height="85" viewBox="0 0 80 85" fill="none" xmlns="http://www.w3.org/2000/svg">
<path id="Vector" d="M74.2363 36.0955C74.0938 35.3806 73.6804 34.7633 73.072 34.357C72.4638 33.9508 71.7357 33.8054 71.02 33.9478L63.9363 35.3589C63.2216 35.5014 62.6041 35.9148 62.1979 36.5232C61.7917 37.1316 61.6463 37.8603 61.7887 38.575L61.8431 38.8479C58.9689 39.7918 55.6744 40.2635 51.8521 38.8025L52.7777 38.1372C57.5689 34.6936 60.1014 29.7547 60.1014 23.8548V7.64907C60.1014 7.18144 59.8548 6.74843 59.4526 6.50981C51.8643 2.00777 45.8647 0 40 0C39.9997 0 40.0002 0 39.9998 0C34.1352 0 28.1352 2.00794 20.5474 6.50965C20.1452 6.74826 19.8986 7.18128 19.8986 7.6489V23.855C19.8986 29.4198 22.152 34.1285 26.427 37.5346H18.2164C18.1488 37.1779 18.0102 36.8347 17.8023 36.5232C17.3961 35.9148 16.7784 35.5015 16.0636 35.3591L8.97999 33.948C7.5026 33.6535 6.05833 34.6168 5.76374 36.0955L0.258894 63.7277C-0.0356897 65.2064 0.927709 66.6492 2.40642 66.9438L9.49017 68.3549C9.66983 68.3907 9.84883 68.4079 10.0254 68.4079C11.3024 68.4079 12.4474 67.5065 12.7062 66.2072L12.711 66.1834L29.4094 82.8816C30.4208 83.893 31.7699 84.4502 33.2079 84.4502H33.208C34.6462 84.4502 35.9952 83.8932 37.0063 82.8818C37.6935 82.1947 38.1709 81.3519 38.4067 80.4312L40.643 82.6675C42.7377 84.7619 46.1458 84.7617 48.2404 82.6672C48.9436 81.9637 49.4108 81.1123 49.6418 80.2123C50.6343 81.131 51.9209 81.6342 53.288 81.6342C54.7262 81.6342 56.0751 81.077 57.0865 80.0654C58.0981 79.054 58.6553 77.7049 58.6553 76.2668C58.6553 76.1438 58.6513 76.0214 58.6432 75.8998C60.1396 76.0027 61.6698 75.4824 62.8106 74.3415C64.2164 72.936 64.7036 70.8418 64.1416 68.9736L67.2292 65.886L67.2933 66.2074C67.5521 67.5066 68.6973 68.4081 69.9743 68.4079C70.1507 68.4079 70.3298 68.3907 70.5095 68.3549L77.5929 66.9438C78.3079 66.8014 78.9254 66.3879 79.3316 65.7795C79.7378 65.1712 79.883 64.4426 79.7406 63.7277L74.2363 36.0955ZM28.7679 35.9862C24.6989 33.0617 22.548 28.8669 22.548 23.8551V8.40714C35.8223 0.68554 44.1773 0.68554 57.452 8.40714V23.8551C57.452 28.8665 55.3009 33.0614 51.2316 35.9862L49.1503 37.4821C48.5265 37.1112 47.8898 36.687 47.2399 36.2043L49.9753 34.2382C53.5081 31.6991 55.2993 28.2057 55.2993 23.8551V10.4376C55.2993 9.95291 55.0345 9.50681 54.6091 9.27482C43.686 3.3151 36.3136 3.31543 25.3909 9.27482C24.9655 9.50698 24.7007 9.95291 24.7007 10.4376V23.8551C24.7007 28.2058 26.4917 31.6993 30.0242 34.2382L34.1373 37.1943L33.7295 37.5348H30.9226L28.7679 35.9862ZM36.5741 35.1597L36.2373 35.4409L31.5705 32.0869C28.7306 30.0457 27.3501 27.3532 27.3501 23.8553V11.2294C36.8301 6.21374 43.1689 6.21357 52.6499 11.2294V23.8551C52.6499 27.3529 51.2692 30.0454 48.429 32.0867L45.0033 34.5489C42.2507 32.938 39.0022 33.1326 36.5741 35.1597ZM10.008 65.7568L2.92422 64.3457C2.88117 64.3371 2.84871 64.2884 2.85732 64.2455L8.36201 36.6133C8.36962 36.575 8.4092 36.5451 8.44828 36.5451C8.45292 36.5451 8.45788 36.5456 8.46235 36.5464L15.5459 37.9575C15.5675 37.9618 15.5853 37.9744 15.5989 37.9948C15.6125 38.0152 15.6171 38.0364 15.613 38.0577L10.1081 65.6899C10.0995 65.7328 10.0502 65.765 10.008 65.7568ZM60.9376 72.4683C59.8758 73.5294 58.1497 73.5299 57.0882 72.4697C57.0878 72.4693 57.0875 72.4688 57.087 72.4685L45.0356 60.4171C44.5179 59.8996 43.6794 59.8998 43.1621 60.4171C42.6448 60.9344 42.6448 61.7731 43.1621 62.2904L55.2135 74.3418C55.2135 74.3418 55.2137 74.3418 55.2137 74.342C55.7249 74.853 56.0062 75.5367 56.0062 76.267C56.0062 76.9972 55.7249 77.6811 55.2135 78.1921C54.7023 78.7033 54.0186 78.9849 53.2882 78.9849C52.5578 78.9849 51.8742 78.7036 51.3631 78.1924L38.6289 65.4581C38.1115 64.9408 37.2729 64.9408 36.7554 65.4581C36.2381 65.9754 36.2381 66.8141 36.7554 67.3314L46.3676 76.9434C47.429 78.005 47.429 79.7322 46.3674 80.7938C45.3061 81.8554 43.5786 81.8556 42.517 80.794L32.2221 70.4993C31.7051 69.9822 30.8663 69.982 30.3488 70.4993C29.8315 71.0166 29.8315 71.8553 30.349 72.3726L35.1338 77.1575C35.645 77.6687 35.9263 78.3524 35.9263 79.0826C35.9263 79.8129 35.6448 80.4968 35.1335 81.0079C34.6225 81.519 33.9388 81.8005 33.2085 81.8005C32.4781 81.8005 31.7942 81.519 31.2832 81.0079L13.3337 63.0592L17.8908 40.1841H30.5563L27.0756 43.0901C25.4733 44.4278 24.7855 46.2537 25.1884 48.0997L28.0696 61.303C28.146 61.6522 28.3601 61.9559 28.6634 62.1448C28.9669 62.334 29.3337 62.3924 29.681 62.3068C33.1648 61.4482 35.4951 59.7671 36.8056 57.1674C37.9353 54.9258 38.1694 52.2651 38.3959 49.6919C38.4259 49.3514 38.456 49.0091 38.4883 48.6659C38.4888 48.6622 38.4893 48.6589 38.49 48.6556C38.9954 48.5228 41.0382 49.003 44.1513 51.8316L61.4917 69.4245C61.9474 70.4458 61.7314 71.6745 60.9376 72.4683ZM62.5968 66.7721L46.0129 49.9465C45.9962 49.9296 45.9793 49.9131 45.9615 49.8972C42.6176 46.8507 39.4592 45.4649 37.5137 46.1911C36.5824 46.5385 35.978 47.3314 35.8555 48.3662C35.8541 48.3766 35.853 48.387 35.852 48.3976C35.8185 48.7531 35.7872 49.1077 35.7563 49.46C35.3418 54.1706 35.033 57.6777 30.3539 59.3456L27.7767 47.5352C27.5358 46.4312 28.1857 45.6149 28.7734 45.1242L38.2719 37.1935C40.0402 35.7171 42.5314 35.8002 44.4721 37.4012C51.6757 43.3442 57.7139 42.9277 62.364 41.4637L66.6069 62.7622L62.5968 66.7721ZM77.1286 64.3084C77.115 64.3288 77.0973 64.3412 77.0758 64.3455L69.9924 65.7567C69.948 65.7646 69.9005 65.7325 69.892 65.6898L64.3873 38.0574C64.3832 38.036 64.3878 38.015 64.4014 37.9946C64.415 37.9743 64.4327 37.9617 64.4542 37.9574L71.538 36.5462C71.5593 36.5424 71.5807 36.5467 71.6009 36.5603C71.6213 36.574 71.6339 36.5918 71.6382 36.6131L77.1428 64.2453C77.147 64.2669 77.1422 64.2881 77.1286 64.3084ZM50.0011 18.7619C49.9983 17.7452 49.5997 16.7906 48.8789 16.0738C48.1606 15.3594 47.2079 14.9663 46.1952 14.9663C46.1917 14.9663 46.1879 14.9663 46.1844 14.9663C45.1677 14.9691 44.2129 15.3677 43.4961 16.0885C43.4956 16.089 43.4949 16.0897 43.4943 16.0903L37.8598 21.7778L36.4597 20.4129C34.955 18.9495 32.5405 18.9828 31.0771 20.4874C30.3682 21.2163 29.9853 22.1775 29.9996 23.1943C30.0136 24.211 30.4228 25.1611 31.1506 25.8692L35.2524 29.867C35.9879 30.5829 36.9464 30.9399 37.9053 30.9399C38.8856 30.9399 39.866 30.5663 40.607 29.8213L48.8938 21.4566C49.6106 20.7358 50.0039 19.7787 50.0011 18.7619ZM47.0132 19.59L38.7263 27.9548C38.2813 28.4022 37.5516 28.4082 37.1007 27.969L32.9989 23.9709C32.7773 23.7554 32.6528 23.4665 32.6487 23.1575C32.6444 22.8485 32.7608 22.5562 32.9762 22.3347C33.2029 22.1017 33.5044 21.9848 33.8061 21.9848C34.0969 21.9848 34.3875 22.0933 34.6114 22.311L36.9513 24.5922C37.4719 25.0995 38.305 25.0927 38.8172 24.5759L45.375 17.9567C45.5928 17.7376 45.8829 17.6164 46.192 17.6156H46.1955C46.5032 17.6156 46.7926 17.7351 47.0112 17.9522C47.2303 18.1701 47.3515 18.4602 47.3523 18.7694C47.3532 19.0785 47.2329 19.3691 47.0132 19.59ZM79.5023 11.3445L73.1444 4.53268C72.7342 4.09304 72.1543 3.84084 71.553 3.84068C71.553 3.84068 71.5529 3.84068 71.5527 3.84068C70.9516 3.84068 70.3714 4.09271 69.9609 4.53251L63.6034 11.3442C63.1005 11.8829 62.9652 12.6676 63.2587 13.3432C63.5523 14.019 64.2183 14.4556 64.9553 14.4556H66.2024V26.0379C66.2024 27.1422 67.1008 28.0407 68.2053 28.0407H74.9001C76.0046 28.0407 76.9031 27.1422 76.9031 26.0379V14.4556H78.1501C78.887 14.4556 79.553 14.019 79.8466 13.3434C80.1403 12.6677 80.0051 11.8832 79.5023 11.3445ZM75.5784 11.8062C74.8468 11.8062 74.2536 12.3993 74.2536 13.1309V25.3913H68.852V13.1309C68.852 12.3993 68.2588 11.8062 67.5272 11.8062H66.7965L71.5529 6.71001L76.3094 11.8062H75.5784ZM1.84971 14.4556H3.09693V26.0379C3.09693 27.1422 3.99542 28.0407 5.0999 28.0407H11.7947C12.899 28.0407 13.7975 27.1422 13.7975 26.0379V14.4556H15.0447C15.7817 14.4556 16.4477 14.019 16.7412 13.3432C17.0347 12.6674 16.8995 11.8829 16.3967 11.3445L10.0389 4.53268C9.62877 4.09304 9.04887 3.84084 8.44762 3.84068C8.44762 3.84068 8.44745 3.84068 8.44729 3.84068C7.8462 3.84068 7.26597 4.09271 6.85547 4.53251L0.497673 11.3445C-0.00505579 11.8832 -0.140342 12.6679 0.153413 13.3435C0.446837 14.0191 1.11284 14.4556 1.84971 14.4556ZM8.44729 6.71001L13.2037 11.8062H12.4728C11.7412 11.8062 11.148 12.3993 11.148 13.1309V25.3913H5.74652V13.1309C5.74652 12.3993 5.15338 11.8062 4.42181 11.8062H3.6909L8.44729 6.71001Z" fill="white"/>
</svg>
