<svg width="82" height="78" viewBox="0 0 82 78" fill="none" xmlns="http://www.w3.org/2000/svg">
<g id="Group">
<path id="Vector" d="M67.5247 43.5999C67.7575 42.092 67.8787 40.5472 67.8787 38.974C67.8787 36.5827 67.5991 34.257 67.0734 32.0261L73.4111 26.8699L66.1696 14.3271L58.5299 17.1391C55.1351 13.9004 50.9854 11.4476 46.3725 10.0665L45.076 2H30.5927L29.2094 10.0157C24.5868 11.3698 20.4244 13.7998 17.0118 17.0173L9.37026 14.1042L2.12872 26.647L8.37979 31.8537C7.82732 34.137 7.53245 36.521 7.53245 38.974C7.53245 41.3654 7.81198 43.6911 8.33775 45.9219L2 51.0782L9.24154 63.621L16.8812 60.809C20.2761 64.0476 24.4257 66.5005 29.0386 67.8816L30.3353 75.9481H44.8184L46.2018 67.9324C47.4489 67.5671 48.6626 67.1234 49.8372 66.6071" stroke="#1295D2" stroke-width="4" stroke-miterlimit="10" stroke-linecap="round" stroke-linejoin="round"/>
<path id="Vector_2" d="M46.4615 56.8178C43.8184 58.12 40.8459 58.852 37.7056 58.852C26.7448 58.852 17.8277 49.9348 17.8277 38.974C17.8277 28.0133 26.7448 19.0961 37.7056 19.0961C48.6663 19.0961 57.5835 28.0133 57.5835 38.974C57.5835 40.3178 57.4494 41.6309 57.194 42.9006" stroke="#1295D2" stroke-width="4" stroke-miterlimit="10" stroke-linecap="round" stroke-linejoin="round"/>
<path id="Vector_3" d="M41.0403 32.1205C40.0633 31.5469 37.7102 30.4988 35.8937 31.2526C33.4598 32.2624 33.0218 35.014 34.7625 36.7706C35.845 37.8631 37.036 38.0587 39.0156 38.81C41.4893 39.749 42.3818 41.8959 41.7992 43.8773C41.3028 45.566 39.6756 46.7943 37.496 46.7943C36.1566 46.7943 34.6749 46.3553 33.4492 45.5302" stroke="#1295D2" stroke-width="4" stroke-miterlimit="10" stroke-linecap="round" stroke-linejoin="round"/>
<path id="Vector_4" d="M37.706 47.0361V49.0943" stroke="#1295D2" stroke-width="4" stroke-miterlimit="10" stroke-linecap="round" stroke-linejoin="round"/>
<path id="Vector_5" d="M37.706 28.8537V30.8083" stroke="#1295D2" stroke-width="4" stroke-miterlimit="10" stroke-linecap="round" stroke-linejoin="round"/>
<path id="Vector_6" d="M71.667 67.4879C77.3738 61.7811 77.3738 52.5287 71.667 46.8219C65.9603 41.1152 56.7078 41.1152 51.0011 46.8219C45.2943 52.5287 45.2943 61.7811 51.0011 67.4879C56.7078 73.1946 65.9603 73.1946 71.667 67.4879Z" stroke="#1295D2" stroke-width="4" stroke-miterlimit="10" stroke-linecap="round" stroke-linejoin="round"/>
<path id="Vector_7" d="M56.5109 57.2079L59.6916 60.3886L66.1588 53.9212" stroke="#1295D2" stroke-width="4" stroke-miterlimit="10" stroke-linecap="round" stroke-linejoin="round"/>
</g>
</svg>
