<svg width="82" height="81" viewBox="0 0 82 81" fill="none" xmlns="http://www.w3.org/2000/svg">
<g id="Crypto Wallet Management Icon">
<path id="Ellipse 142" d="M81.5 40.5C81.5 62.5856 63.3733 80.5 41 80.5C18.6267 80.5 0.5 62.5856 0.5 40.5C0.5 18.4144 18.6267 0.5 41 0.5C63.3733 0.5 81.5 18.4144 81.5 40.5Z" stroke="#fff" fill="#1295D2"/>
<g id="layer1">
<path id="path13423" d="M28.332 21C27.2356 21 26.3333 21.9023 26.3333 22.9987V44.3321C26.3333 45.2218 27.668 45.2218 27.668 44.3321V27.6693H54.3307V44.3321C54.3106 45.2411 55.6845 45.2411 55.6641 44.3321V22.9987C55.6641 21.9023 54.7631 21 53.6667 21H28.332ZM28.332 22.3347H53.6667C54.0475 22.3347 54.3307 22.6178 54.3307 22.9987V26.3346H27.668V22.9987C27.668 22.6178 27.9512 22.3347 28.332 22.3347ZM29.6667 23.6667C29.2985 23.6667 29 23.9652 29 24.3334C29 24.7016 29.2985 25 29.6667 25C30.0348 25 30.3333 24.7016 30.3333 24.3334C30.3333 23.9652 30.0348 23.6667 29.6667 23.6667ZM32.3333 23.6667C31.9652 23.6667 31.6667 23.9652 31.6667 24.3334C31.6667 24.7016 31.9652 25 32.3333 25C32.7015 25 33 24.7016 33 24.3334C33 23.9652 32.7015 23.6667 32.3333 23.6667ZM35 23.6667C34.6318 23.6667 34.3333 23.9652 34.3333 24.3334C34.3333 24.7016 34.6318 25 35 25C35.3682 25 35.6667 24.7016 35.6667 24.3334C35.6667 23.9652 35.3682 23.6667 35 23.6667ZM44.2995 23.668C43.3994 23.7292 43.4608 25.0234 44.3308 25.0014H52.3333C53.2027 24.9812 53.2027 23.6873 52.3333 23.668H44.2995ZM23.0026 25.0014C21.9061 25.0014 21 25.9023 21 26.9988V51C21 52.0965 21.9061 52.9987 23.0026 52.9987H59.0013C60.0978 52.9987 61 52.0965 61 51V26.9987C61 25.9022 60.0978 25.0013 59.0013 25.0013H57.668C56.7591 24.9811 56.7591 26.3548 57.668 26.3346H59.0013C59.3822 26.3346 59.6654 26.6178 59.6654 26.9987V46.3346H22.3333V26.9987C22.3333 26.6178 22.6218 26.3346 23.0026 26.3346H24.3307C25.2396 26.3548 25.2396 24.9811 24.3307 25.0013L23.0026 25.0014ZM43.0078 30.3229C42.7147 30.321 42.4548 30.5107 42.3672 30.7905L38.3659 42.7891C38.0838 43.6329 39.3494 44.056 39.6315 43.2123L43.6328 31.2097C43.7837 30.778 43.4651 30.326 43.0078 30.3229ZM45.9062 34.1771L49.2917 37.0013L45.9062 39.8217C45.1829 40.388 46.0761 41.4566 46.7617 40.8451L50.7578 37.5131C51.0769 37.2465 51.0769 36.7562 50.7578 36.4897L46.7617 33.1524C46.6423 33.0501 46.4905 32.9934 46.2995 32.9936C45.6693 33.0488 45.4408 33.8005 45.9062 34.1771ZM35.6497 32.9949C35.4996 32.9999 35.3555 33.0554 35.2409 33.1524L31.2409 36.4896C30.9218 36.7561 30.9218 37.2465 31.2409 37.513L35.2409 40.8451C35.9288 41.4858 36.8476 40.3816 36.0924 39.8216L32.707 37.0012L36.0924 34.1771C36.585 33.7737 36.2861 32.9755 35.6497 32.9949ZM22.3333 47.6693H59.6654V51C59.6654 51.3809 59.3822 51.6641 59.0013 51.6641H23.0026C22.6218 51.6641 22.3333 51.3809 22.3333 51V47.6693ZM42.3698 49.0014L39.6341 49.0027C38.7843 49.1042 38.8414 50.308 39.6654 50.3308H42.3333C43.2489 50.4117 43.3251 49.0197 42.3698 49.0014ZM37.2604 54.2799C36.9928 54.2749 36.7478 54.4291 36.638 54.6732C36.317 55.3618 35.7418 56.1658 34.7487 56.9987H33.6667C32.5702 56.9987 31.6693 57.9062 31.6693 59.0027V60.3308C31.6679 60.699 31.9652 60.9985 32.3333 61H49.6654C50.0356 61.0013 50.336 60.701 50.3346 60.3308V59.0027C50.3346 57.9062 49.4285 56.9987 48.332 56.9987H47.2513C46.2583 56.1659 45.683 55.3617 45.362 54.6732C45.2491 54.4227 44.9943 54.2672 44.7201 54.2812C44.2438 54.3064 43.9463 54.8076 44.1536 55.237C44.4135 55.7945 44.8104 56.3923 45.3451 56.9987H36.6549C37.1896 56.3923 37.5864 55.7945 37.8464 55.237C38.058 54.7998 37.7461 54.2903 37.2604 54.2799ZM33.6667 58.3334H48.332C48.7129 58.3334 49.0013 58.6218 49.0013 59.0027V59.6667H33.0026V59.0027C33.0026 58.6218 33.2858 58.3334 33.6667 58.3334Z" fill="#fff"/>
</g>
</g>
</svg>
