<svg width="52" height="53" viewBox="0 0 52 53" fill="none" xmlns="http://www.w3.org/2000/svg">
<path id="Vector" d="M33.407 35.8084L33.3673 28.259C33.3653 27.8675 33.0473 27.5513 32.6558 27.5513H20.4426L23.4913 24.5026C23.7691 24.2247 23.7691 23.7741 23.4913 23.4963C23.2134 23.2184 22.7628 23.2184 22.485 23.4963L18.4299 27.5513H11.3529V21.4731H12.1076C12.5005 21.4731 12.8192 21.1545 12.8192 20.7616V18.9406C13.3649 18.7824 13.8906 18.5646 14.3912 18.2892L15.6812 19.577C15.9593 19.8544 16.4099 19.8542 16.6874 19.5762L18.7587 17.502C19.0363 17.2241 19.0361 16.7739 18.7584 16.4961L17.4708 15.2085C17.7466 14.7068 17.9644 14.1812 18.1222 13.6375H19.9434C20.3364 13.6375 20.655 13.3189 20.655 12.926V12.419H33.7008L30.9142 15.2056C30.6363 15.4835 30.6363 15.934 30.9142 16.2119C31.0532 16.3509 31.2352 16.4203 31.4173 16.4203C31.5994 16.4203 31.7815 16.3509 31.9204 16.2119L36.1839 11.9484C36.4618 11.6705 36.4618 11.2199 36.1839 10.942L31.9204 6.67849C31.6425 6.40062 31.1921 6.40062 30.9142 6.67849C30.6363 6.95637 30.6363 7.40694 30.9142 7.68481L34.2252 10.9958H20.6548V9.99325C20.6548 9.60021 20.3362 9.28171 19.9432 9.28171H18.122C17.9642 8.73787 17.7464 8.21256 17.4706 7.71068L18.7582 6.42322C19.036 6.14545 19.0362 5.69518 18.7585 5.41731L16.6872 3.34317C16.4096 3.06529 15.9591 3.06488 15.6811 3.34235L14.3911 4.63011C13.8905 4.35458 13.3648 4.13678 12.8191 3.97875V2.15774C12.8191 1.7647 12.5004 1.4462 12.1075 1.4462H9.175C8.78206 1.4462 8.46346 1.7648 8.46346 2.15774V3.97895C7.91952 4.13678 7.39411 4.35458 6.89232 4.63032L5.60487 3.34276C5.32699 3.06488 4.87652 3.06488 4.59865 3.34276L2.52451 5.4169C2.39102 5.55049 2.31597 5.73164 2.31607 5.92032C2.31607 6.1092 2.39132 6.29024 2.52491 6.42363L3.814 7.71047C3.53938 8.2093 3.32127 8.73481 3.16182 9.28181H1.33949C0.94655 9.28181 0.627945 9.60042 0.627945 9.99335V12.926C0.627945 13.319 0.94655 13.6375 1.33949 13.6375H3.16182C3.32117 14.1845 3.53928 14.71 3.814 15.2088L2.52491 16.4957C2.39132 16.6291 2.31618 16.8101 2.31607 16.999C2.31597 17.1879 2.39091 17.3689 2.52451 17.5024L4.59865 19.5766C4.73204 19.7099 4.91308 19.785 5.10176 19.785C5.29044 19.785 5.47148 19.7099 5.60487 19.5766L6.89242 18.2889C7.39411 18.5647 7.91962 18.7825 8.46356 18.9404V20.7616C8.46356 21.1546 8.78216 21.4731 9.1751 21.4731H9.92981V28.2629C9.92981 28.6559 10.2484 28.9744 10.6414 28.9744H18.4299L22.485 33.0296C22.624 33.1686 22.8061 33.238 22.9882 33.238C23.1703 33.238 23.3524 33.1686 23.4913 33.0296C23.7691 32.7517 23.7691 32.3011 23.4913 32.0232L20.4425 28.9744H31.948L31.9839 35.809C27.8352 36.1725 24.5697 39.6638 24.5697 43.9052C24.5697 48.3862 28.2165 52.0317 32.699 52.0317C37.1816 52.0317 40.8284 48.3862 40.8284 43.9052C40.8284 39.6613 37.5591 36.1687 33.407 35.8084ZM9.32091 17.6883C8.55958 17.5291 7.83531 17.229 7.16816 16.7967C6.88642 16.6143 6.51547 16.6535 6.27812 16.8907L5.10176 18.0671L4.03434 16.9997L5.21275 15.8233C5.45101 15.5855 5.48991 15.2132 5.30612 14.9312C4.87673 14.2726 4.57594 13.5482 4.41221 12.778C4.34226 12.4494 4.05216 12.2144 3.71625 12.2144H2.05103V10.7049H3.71604C4.05196 10.7049 4.34216 10.4699 4.41201 10.1413C4.57584 9.37111 4.87652 8.64664 5.30591 7.98814C5.48981 7.70609 5.45081 7.33383 5.21254 7.09597L4.03434 5.9196L5.10176 4.85209L6.27812 6.02845C6.51537 6.2656 6.88652 6.3049 7.16816 6.12243C7.83541 5.69009 8.55968 5.39012 9.32091 5.23077C9.65051 5.16183 9.88664 4.87113 9.88664 4.5344V2.86928H11.3962V4.5343C11.3962 4.87113 11.6323 5.16173 11.9619 5.23077C12.7271 5.39083 13.4511 5.6907 14.1136 6.12172C14.3952 6.3048 14.7665 6.26611 15.0044 6.02886L16.1832 4.85198L17.2493 5.9195L16.0726 7.09617C15.8353 7.33352 15.7961 7.70457 15.9786 7.98631C16.411 8.65356 16.711 9.37783 16.8703 10.139C16.9392 10.4686 17.2299 10.7048 17.5668 10.7048H19.2318V12.2143H17.5668C17.2299 12.2143 16.9393 12.4506 16.8703 12.7802C16.711 13.5414 16.411 14.2657 15.9786 14.9328C15.7961 15.2145 15.8353 15.5855 16.0726 15.8229L17.2493 16.9996L16.1832 18.0671L15.0043 16.8903C14.7665 16.6529 14.3952 16.6141 14.1135 16.7974C13.4511 17.2285 12.7271 17.5282 11.9619 17.6884C11.6323 17.7575 11.3962 18.0481 11.3962 18.3849V20.0499H9.88664V18.3849C9.88664 18.0482 9.65051 17.7575 9.32091 17.6883ZM32.699 50.6086C29.0012 50.6086 25.9928 47.6015 25.9928 43.9051C25.9928 40.2072 29.0012 37.1988 32.699 37.1988C36.3969 37.1988 39.4053 40.2072 39.4053 43.9051C39.4054 47.6015 36.397 50.6086 32.699 50.6086ZM35.8104 46.0968C36.086 46.3769 36.0823 46.8273 35.8022 47.103C35.6636 47.2392 35.4834 47.3073 35.3032 47.3073C35.1192 47.3073 34.9352 47.2364 34.7959 47.0947L32.1485 44.4041C32.0175 44.2711 31.9441 44.0919 31.9441 43.9051V39.0914C31.9441 38.6984 32.2627 38.3799 32.6557 38.3799C33.0486 38.3799 33.3672 38.6985 33.3672 39.0914V43.6137L35.8104 46.0968ZM15.8957 11.4596C15.8957 8.56233 13.5386 6.20512 10.6414 6.20512C7.7456 6.20512 5.38982 8.56222 5.38982 11.4596C5.38982 14.357 7.7456 16.7141 10.6414 16.7141C13.5386 16.714 15.8957 14.3569 15.8957 11.4596ZM6.8129 11.4596C6.8129 9.34698 8.53035 7.6283 10.6414 7.6283C12.754 7.6283 14.4727 9.34698 14.4727 11.4596C14.4727 13.5722 12.7539 15.2909 10.6414 15.2909C8.53035 15.2908 6.8129 13.5721 6.8129 11.4596ZM49.6711 4.48817L51.8153 2.12607C52.0046 1.91754 52.053 1.61716 51.939 1.35975C51.825 1.10234 51.57 0.936266 51.2884 0.936266H43.9893L43.9886 0.709505C43.9875 0.31718 43.6692 0 43.2772 0C43.2765 0 43.2757 0 43.275 0C42.8821 0.00122188 42.5644 0.320642 42.5656 0.71368L42.5772 4.65852V7.32863C42.5772 7.36336 42.5806 7.39716 42.5854 7.43056L42.5985 11.9178C39.5461 12.0909 37.3227 13.3861 37.3227 15.0663C37.3227 16.8744 39.8925 18.238 43.3003 18.238C46.7064 18.238 49.2749 16.8744 49.2749 15.0663C49.2749 13.3898 47.0622 12.0967 44.0216 11.919L44.0102 8.04018H51.2885C51.5701 8.04018 51.8251 7.8741 51.9391 7.61669C52.053 7.35928 52.0046 7.0588 51.8154 6.85037L49.6711 4.48817ZM47.8517 15.0663C47.8517 15.7793 46.0786 16.8149 43.3001 16.8149C40.5199 16.8149 38.7456 15.7793 38.7456 15.0663C38.7456 14.416 40.2268 13.4975 42.6025 13.3434L42.6087 15.4774C42.6098 15.8697 42.9281 16.1869 43.3201 16.1869H43.3223C43.7152 16.1856 44.0329 15.8662 44.0317 15.4732L44.0255 13.3451C46.3833 13.5045 47.8517 14.4186 47.8517 15.0663ZM44.0059 6.61709L44.0001 4.65445V2.35945H49.6816L48.1833 4.01001C47.937 4.28137 47.937 4.69518 48.1833 4.96654L49.6817 6.61719L44.0059 6.61709ZM12.0586 39.6906H11.8686C12.7714 38.7982 13.3319 37.5602 13.3319 36.1935C13.3319 33.4805 11.1247 31.2732 8.41163 31.2732C5.69865 31.2732 3.49142 33.4805 3.49142 36.1935C3.49142 37.5602 4.05196 38.7982 4.95473 39.6906H4.76472C2.13748 39.6906 0 41.8269 0 44.4525V51.1386C0 51.5317 0.318605 51.8502 0.711542 51.8502H16.1119C16.5049 51.8502 16.8235 51.5316 16.8235 51.1386V44.4525C16.8234 41.8268 14.686 39.6906 12.0586 39.6906ZM4.91451 36.1934C4.91451 34.265 6.4833 32.6963 8.41173 32.6963C10.3402 32.6963 11.909 34.2651 11.909 36.1934C11.909 38.1219 10.3402 39.6905 8.41173 39.6905C6.4833 39.6906 4.91451 38.1219 4.91451 36.1934ZM15.4004 50.4271H1.42308V44.4525C1.42308 42.6115 2.92213 41.1137 4.76472 41.1137H12.0586C13.9012 41.1137 15.4003 42.6115 15.4003 44.4525L15.4004 50.4271Z" fill="#1295D2"/>
</svg>
