<svg width="68" height="55" viewBox="0 0 68 55" fill="none" xmlns="http://www.w3.org/2000/svg">
<path id="Vector" d="M61.2 10.3125H68V27.5H61.2V10.3125ZM27.2 0C12.172 0 0 12.3062 0 27.5C0 42.6937 12.172 55 27.2 55C42.228 55 54.4 42.6937 54.4 27.5C54.4 12.3062 42.228 0 27.2 0ZM27.2 48.125C15.946 48.125 6.8 38.8781 6.8 27.5C6.8 16.1219 15.946 6.875 27.2 6.875C38.454 6.875 47.6 16.1219 47.6 27.5C47.6 38.8781 38.454 48.125 27.2 48.125ZM61.2 34.375H68V41.25H61.2V34.375ZM27.2 20.625C23.46 20.625 20.4 23.7188 20.4 27.5C20.4 31.2812 23.46 34.375 27.2 34.375C30.94 34.375 34 31.2812 34 27.5C34 23.7188 30.94 20.625 27.2 20.625Z" fill="#1295D2"/>
</svg>
