<svg width="67" height="68" viewBox="0 0 67 68" fill="none" xmlns="http://www.w3.org/2000/svg">
<path id="Vector" d="M60.5194 40.426C64.0855 40.426 67 37.536 67 34C67 30.464 64.0855 27.574 60.5194 27.574C56.9534 27.574 54.0389 30.464 54.0389 34C54.0389 37.536 56.9534 40.426 60.5194 40.426ZM45.9811 39.712C49.1699 39.712 51.7416 37.162 51.7416 34C51.7416 30.838 49.1699 28.288 45.9811 28.288C42.7922 28.288 40.2206 30.838 40.2206 34C40.2206 37.162 42.7922 39.712 45.9811 39.712ZM45.9811 25.228C49.1699 25.228 51.7416 22.678 51.7416 19.516C51.7416 16.354 49.1699 13.804 45.9811 13.804C42.7922 13.804 40.2206 16.354 40.2206 19.516C40.2206 22.678 42.7922 25.228 45.9811 25.228ZM45.9811 54.162C49.1699 54.162 51.7416 51.612 51.7416 48.45C51.7416 45.288 49.1699 42.738 45.9811 42.738C42.7922 42.738 40.2206 45.288 40.2206 48.45C40.2206 51.578 42.7922 54.162 45.9811 54.162ZM31.4427 38.998C34.2201 38.998 36.4831 36.754 36.4831 34C36.4831 31.246 34.2201 29.002 31.4427 29.002C28.6653 29.002 26.4023 31.246 26.4023 34C26.4023 36.754 28.631 38.998 31.4427 38.998ZM31.4427 24.514C34.2201 24.514 36.4831 22.27 36.4831 19.516C36.4831 16.762 34.2201 14.518 31.4427 14.518C28.6653 14.518 26.4023 16.762 26.4023 19.516C26.4023 22.27 28.631 24.514 31.4427 24.514ZM31.4427 53.482C34.2201 53.482 36.4831 51.238 36.4831 48.484C36.4831 45.73 34.2201 43.486 31.4427 43.486C28.6653 43.486 26.4023 45.73 26.4023 48.484C26.368 51.238 28.631 53.482 31.4427 53.482ZM31.4427 68C34.2201 68 36.4831 65.756 36.4831 63.002C36.4831 60.248 34.2201 58.004 31.4427 58.004C28.6653 58.004 26.4023 60.248 26.4023 63.002C26.368 65.756 28.631 68 31.4427 68ZM31.4427 9.996C34.2201 9.996 36.4831 7.752 36.4831 4.998C36.4831 2.244 34.2201 0 31.4427 0C28.6653 0 26.4023 2.244 26.4023 4.998C26.4023 7.752 28.631 9.996 31.4427 9.996ZM16.87 38.284C19.2702 38.284 21.1904 36.346 21.1904 34C21.1904 31.654 19.2359 29.716 16.87 29.716C14.4698 29.716 12.5496 31.654 12.5496 34C12.5496 36.346 14.4698 38.284 16.87 38.284ZM16.87 52.734C19.2702 52.734 21.1904 50.796 21.1904 48.45C21.1904 46.07 19.2359 44.166 16.87 44.166C14.4698 44.166 12.5496 46.104 12.5496 48.45C12.5496 50.796 14.4698 52.734 16.87 52.734ZM16.87 23.868C19.2702 23.868 21.1904 21.93 21.1904 19.584C21.1904 17.204 19.2359 15.3 16.87 15.3C14.4698 15.3 12.5496 17.238 12.5496 19.584C12.5496 21.93 14.4698 23.868 16.87 23.868ZM3.60031 37.57C5.58905 37.57 7.20061 35.972 7.20061 34C7.20061 32.028 5.58905 30.43 3.60031 30.43C1.61157 30.43 0 32.028 0 34C0 35.972 1.61157 37.57 3.60031 37.57Z" fill="#1295D2"/>
</svg>
