<svg width="82" height="81" viewBox="0 0 82 81" fill="none" xmlns="http://www.w3.org/2000/svg">
<g id="Real Time Analysis Icon">
<ellipse id="Ellipse 143" cx="41" cy="40.5" rx="41" ry="40.5" fill="#1295D2"/>
<g id="Code_x2C__coding_x2C__mobile_x2C__development">
<g id="Group 2034">
<path id="Vector" d="M41.0834 33.7483C41.7442 33.7483 42.2793 33.2128 42.2793 32.5525C42.2793 31.8921 41.7442 31.3566 41.0834 31.3566C35.8001 31.3566 31.5171 35.6397 31.5171 40.9233C31.5171 46.2066 35.8001 50.4897 41.0834 50.4897C46.3671 50.4897 50.6501 46.2066 50.6501 40.9233C50.6501 40.2626 50.1147 39.7275 49.4543 39.7275C48.7939 39.7275 48.2584 40.2626 48.2584 40.9233C48.2584 44.8859 45.0464 48.0984 41.0834 48.0984C37.1209 48.0984 33.9084 44.8859 33.9084 40.9233C33.9084 36.9604 37.1209 33.7483 41.0834 33.7483Z" fill="white"/>
<path id="Vector_2" d="M63.8999 33.8205C63.6922 33.1931 63.0154 32.8528 62.3876 33.0605C61.7745 33.2634 61.4331 33.9161 61.6159 34.5354C65.1921 45.9235 58.8594 58.0544 47.4713 61.6306C36.0836 65.2067 23.9527 58.8741 20.3765 47.486C16.8 36.0979 23.133 23.967 34.5207 20.3909C38.7364 19.0672 43.256 19.0672 47.4713 20.3909C48.1042 20.5817 48.7719 20.2235 48.9627 19.5906C49.1506 18.9672 48.806 18.3083 48.1866 18.1069C35.5415 14.1395 22.0741 21.1743 18.1068 33.8198C14.1395 46.4649 21.1746 59.9322 33.8197 63.8996C46.4652 67.8669 59.9322 60.8321 63.8995 48.1867C65.3668 43.5103 65.3668 38.4969 63.8999 33.8205Z" fill="white"/>
<path id="Vector_3" d="M43.3608 25.5434C43.367 24.8625 42.844 24.2933 42.165 24.2424C41.8079 24.212 41.4504 24.1816 41.0838 24.1816C31.8375 24.1816 24.342 31.6771 24.342 40.9234C24.342 50.1692 31.8375 57.6647 41.0838 57.6647C50.3296 57.6647 57.8251 50.1692 57.8251 40.9234C57.8251 40.4908 57.7988 40.0586 57.7456 39.6294C57.6501 38.973 57.0406 38.5185 56.3843 38.6141C55.7279 38.7093 55.2734 39.3191 55.3686 39.9755C55.3723 40.0004 55.3767 40.0249 55.3818 40.0498C55.4078 40.3395 55.4335 40.6267 55.4335 40.9226C55.4338 48.8481 49.0093 55.2727 41.0841 55.2734C33.1586 55.2738 26.7341 48.8488 26.7337 40.9237C26.7334 32.9986 33.1575 26.5737 41.083 26.5733H41.0834C41.3801 26.5733 41.6676 26.5989 41.9566 26.6246L42.1807 26.6433C42.8056 26.67 43.3337 26.1851 43.3601 25.5602C43.3604 25.5544 43.3604 25.5489 43.3608 25.5434Z" fill="white"/>
<path id="Vector_4" d="M48.2584 27.7691V32.0573L40.2381 40.0777C39.763 40.5366 39.7498 41.2936 40.2088 41.7687C40.6677 42.2437 41.4247 42.2569 41.8998 41.798C41.9097 41.7884 41.9196 41.7786 41.9291 41.7687L49.9494 33.7483H54.2376C54.5548 33.7483 54.8588 33.6223 55.0833 33.3978L62.2579 26.2228C62.7249 25.7558 62.7249 24.9987 62.2579 24.5318C62.0338 24.3076 61.7298 24.1816 61.4126 24.1816H57.8251V20.5941C57.8251 19.9337 57.2896 19.3983 56.6289 19.3986C56.3121 19.3986 56.0081 19.5246 55.7839 19.7488L48.6089 26.9238C48.3844 27.148 48.2584 27.452 48.2584 27.7691ZM50.6501 28.2643L55.4334 23.481V25.3775C55.4334 26.0378 55.9689 26.5733 56.6293 26.5733H58.5258L53.7424 31.3566H50.6501V28.2643Z" fill="white"/>
</g>
</g>
</g>
</svg>
