<svg width="82" height="81" viewBox="0 0 82 81" fill="none" xmlns="http://www.w3.org/2000/svg">
<g id="Real Time Analysis Icon">
<ellipse id="Ellipse 143" cx="41" cy="40.5" rx="41" ry="40.5" fill="#1295D2"/>
<g id="Code_x2C__coding_x2C__mobile_x2C__development">
<g id="XMLID_1809_">
<g id="XMLID_1832_">
<g id="Group">
<g id="Group_2">
<path id="Vector" d="M43.4 21.8H38.6C38.1584 21.8 37.8 21.4416 37.8 21C37.8 20.5584 38.1584 20.2 38.6 20.2H43.4C43.8416 20.2 44.2 20.5584 44.2 21C44.2 21.4416 43.8416 21.8 43.4 21.8Z" fill="white"/>
</g>
</g>
</g>
<g id="XMLID_1831_">
<g id="Group_3">
<g id="Group_4">
<path id="Vector_2" d="M49.8 65H32.2C29.9936 65 28.2 63.2048 28.2 61V33.8C28.2 33.3584 28.5584 33 29 33C29.4416 33 29.8 33.3584 29.8 33.8V61C29.8 62.3232 30.8768 63.4 32.2 63.4H49.8C51.1232 63.4 52.2 62.3232 52.2 61V33.8C52.2 33.3584 52.5584 33 53 33C53.4416 33 53.8 33.3584 53.8 33.8V61C53.8 63.2048 52.0064 65 49.8 65Z" fill="white"/>
</g>
</g>
</g>
<g id="XMLID_1830_">
<g id="Group_5">
<g id="Group_6">
<path id="Vector_3" d="M53 39.4C52.5584 39.4 52.2 39.0416 52.2 38.6V21C52.2 19.6768 51.1232 18.6 49.8 18.6H32.2C30.8768 18.6 29.8 19.6768 29.8 21V38.6C29.8 39.0416 29.4416 39.4 29 39.4C28.5584 39.4 28.2 39.0416 28.2 38.6V21C28.2 18.7952 29.9936 17 32.2 17H49.8C52.0064 17 53.8 18.7952 53.8 21V38.6C53.8 39.0416 53.4416 39.4 53 39.4Z" fill="white"/>
</g>
</g>
</g>
<g id="XMLID_1816_">
<g id="XMLID_1824_">
<g id="Group_7">
<g id="Group_8">
<path id="Vector_4" d="M57.8 25.08C57.3584 25.08 57 24.8016 57 24.36V24.2C57 23.7584 57.3584 23.4 57.8 23.4C58.2416 23.4 58.6 23.7584 58.6 24.2C58.6 24.6416 58.2416 25.08 57.8 25.08Z" fill="white"/>
</g>
</g>
</g>
<g id="XMLID_1818_">
<g id="Group_9">
<g id="Group_10">
<path id="Vector_5" d="M57.7999 28.2799C57.3583 28.2799 56.9999 28.0015 56.9999 27.5599V27.3999C56.9999 26.9583 57.3583 26.5999 57.7999 26.5999C58.2415 26.5999 58.5999 26.9583 58.5999 27.3999C58.5999 27.8415 58.2415 28.2799 57.7999 28.2799Z" fill="white"/>
</g>
</g>
</g>
<g id="XMLID_1817_">
<g id="Group_11">
<g id="Group_12">
<path id="Vector_6" d="M57.7999 31.4799C57.3583 31.4799 56.9999 31.2015 56.9999 30.7599V30.5999C56.9999 30.1583 57.3583 29.7999 57.7999 29.7999C58.2415 29.7999 58.5999 30.1583 58.5999 30.5999C58.5999 31.0415 58.2415 31.4799 57.7999 31.4799Z" fill="white"/>
</g>
</g>
</g>
</g>
<g id="XMLID_1820_">
<g id="XMLID_1823_">
<g id="Group_13">
<g id="Group_14">
<path id="Vector_7" d="M24.2 52.1201C23.7584 52.1201 23.4 51.8417 23.4 51.4001V51.2401C23.4 50.7985 23.7584 50.4401 24.2 50.4401C24.6416 50.4401 25 50.7985 25 51.2401C25 51.6817 24.6416 52.1201 24.2 52.1201Z" fill="white"/>
</g>
</g>
</g>
<g id="XMLID_1822_">
<g id="Group_15">
<g id="Group_16">
<path id="Vector_8" d="M24.1999 55.32C23.7583 55.32 23.3999 55.0416 23.3999 54.6V54.44C23.3999 53.9984 23.7583 53.64 24.1999 53.64C24.6415 53.64 24.9999 53.9984 24.9999 54.44C24.9999 54.8816 24.6415 55.32 24.1999 55.32Z" fill="white"/>
</g>
</g>
</g>
<g id="XMLID_1821_">
<g id="Group_17">
<g id="Group_18">
<path id="Vector_9" d="M24.1999 58.52C23.7583 58.52 23.3999 58.2416 23.3999 57.8V57.64C23.3999 57.1984 23.7583 56.84 24.1999 56.84C24.6415 56.84 24.9999 57.1984 24.9999 57.64C24.9999 58.0816 24.6415 58.52 24.1999 58.52Z" fill="white"/>
</g>
</g>
</g>
</g>
<g id="XMLID_1815_">
<g id="Group_19">
<g id="Group_20">
<path id="Vector_10" d="M55.1456 58.6C55.0896 58.6 55.032 58.5952 54.976 58.5824C54.544 58.4896 54.2704 58.064 54.3632 57.632L54.8912 55.184C54.9552 54.8832 55.1872 54.648 55.4848 54.576C56.24 54.3936 56.976 54.0864 57.672 53.6624C57.9296 53.5024 58.2608 53.5072 58.5184 53.6704L60.1024 54.6832L61.0832 53.6944L60.0704 52.1232C59.904 51.8656 59.9008 51.5344 60.0592 51.2736C60.4832 50.5776 60.7904 49.8416 60.9712 49.0864C61.0432 48.7888 61.2768 48.5584 61.576 48.4912L63.4 48.0864V46.7152L61.5776 46.3104C61.2784 46.2432 61.0448 46.0128 60.9728 45.7152C60.792 44.96 60.4832 44.224 60.0608 43.528C59.9008 43.2672 59.904 42.9376 60.0704 42.68L61.0848 41.0944L60.1056 40.1152L58.52 41.1296C58.2624 41.2944 57.9328 41.2976 57.6736 41.1376C56.976 40.7136 56.24 40.4064 55.4864 40.224C55.1872 40.152 54.9568 39.9152 54.8928 39.616L54.4992 37.8H53.8C53.3584 37.8 53 37.4416 53 37C53 36.5584 53.3584 36.2 53.8 36.2H55.144C55.52 36.2 55.8464 36.464 55.9248 36.832L56.352 38.8048C56.9376 38.9824 57.512 39.2224 58.0656 39.5216L59.784 38.4224C60.1008 38.2208 60.5136 38.2656 60.7808 38.5312L62.6704 40.4192C62.936 40.6848 62.9808 41.0992 62.7776 41.416L61.6784 43.1344C61.9776 43.6896 62.2176 44.264 62.3952 44.8512L64.3712 45.2896C64.7392 45.3712 65 45.6976 65 46.072V48.728C65 49.1024 64.7392 49.4288 64.3728 49.5088L62.3968 49.9472C62.2192 50.5344 61.9792 51.1088 61.68 51.6624L62.7776 53.3648C62.9824 53.68 62.9392 54.096 62.6736 54.3616L60.784 56.2656C60.5168 56.5328 60.1024 56.5776 59.7856 56.376L58.0672 55.2768C57.512 55.576 56.9392 55.816 56.3536 55.9936L55.9264 57.9664C55.8448 58.344 55.512 58.6 55.1456 58.6Z" fill="white"/>
</g>
</g>
</g>
<g id="XMLID_1810_">
<g id="Group_21">
<g id="Group_22">
<path id="Vector_11" d="M56.0256 51.5248C55.7696 51.5248 55.5168 51.4 55.3616 51.1712C55.1152 50.8048 55.2128 50.3072 55.5808 50.0608C56.4688 49.4624 57 48.4672 57 47.4C57 45.6352 55.5648 44.2 53.8 44.2C53.5824 44.2 53.3664 44.2224 53.16 44.264C52.7312 44.3504 52.304 44.0752 52.2144 43.64C52.1264 43.2064 52.4048 42.784 52.8384 42.696C53.152 42.6336 53.4752 42.6 53.8 42.6C56.4464 42.6 58.6 44.7536 58.6 47.4C58.6 49.0016 57.8048 50.4928 56.4704 51.3888C56.3344 51.48 56.1792 51.5248 56.0256 51.5248Z" fill="white"/>
</g>
</g>
</g>
<g id="XMLID_1293_">
<g id="Group_23">
<g id="Group_24">
<path id="Vector_12" d="M28.2 39.4C25.5536 39.4 23.4 37.2464 23.4 34.6C23.4 32.992 24.2 31.4992 25.5408 30.6032C25.904 30.36 26.4032 30.456 26.6496 30.8256C26.8944 31.192 26.7952 31.6896 26.4272 31.9344C25.5344 32.5328 25 33.528 25 34.6C25 36.3648 26.4352 37.8 28.2 37.8C28.4144 37.8 28.6256 37.7792 28.8272 37.7376C29.2512 37.6496 29.6816 37.9296 29.7696 38.3648C29.8576 38.7984 29.576 39.2192 29.1424 39.3056C28.8368 39.368 28.5232 39.4 28.2 39.4Z" fill="white"/>
</g>
</g>
</g>
<g id="XMLID_1811_">
<g id="Group_25">
<g id="Group_26">
<path id="Vector_13" d="M28.2 45.8001H26.856C26.48 45.8001 26.1536 45.5361 26.0752 45.1681L25.648 43.1953C25.0624 43.0177 24.488 42.7777 23.9344 42.4785L22.216 43.5777C21.8976 43.7793 21.4864 43.7361 21.2192 43.4689L19.3296 41.5809C19.064 41.3153 19.0192 40.9009 19.2224 40.5841L20.3216 38.8657C20.0224 38.3105 19.7824 37.7361 19.6048 37.1489L17.6288 36.7105C17.2608 36.6289 17 36.3025 17 35.9281V33.2721C17 32.8977 17.2608 32.5713 17.6272 32.4913L19.6032 32.0529C19.7808 31.4657 20.0208 30.8913 20.32 30.3377L19.224 28.6337C19.0192 28.3185 19.0624 27.9025 19.328 27.6369L21.2176 25.7329C21.4816 25.4641 21.8976 25.4193 22.216 25.6225L23.9344 26.7217C24.4896 26.4225 25.0624 26.1825 25.648 26.0049L26.0752 24.0321C26.168 23.5985 26.6016 23.3233 27.0256 23.4193C27.4576 23.5121 27.7312 23.9377 27.6384 24.3697L27.1104 26.8177C27.0464 27.1185 26.8144 27.3537 26.5168 27.4257C25.7616 27.6081 25.0256 27.9153 24.328 28.3393C24.0688 28.4993 23.7392 28.4945 23.4816 28.3313L21.8976 27.3185L20.9152 28.3073L21.928 29.8785C22.096 30.1361 22.0992 30.4673 21.9392 30.7281C21.5152 31.4241 21.208 32.1601 21.0272 32.9153C20.9552 33.2129 20.7216 33.4433 20.4224 33.5105L18.6 33.9137V35.2849L20.4224 35.6897C20.7216 35.7569 20.9552 35.9873 21.0272 36.2849C21.208 37.0401 21.5168 37.7761 21.9392 38.4721C22.0992 38.7329 22.096 39.0625 21.9296 39.3201L20.9152 40.9041L21.8944 41.8833L23.48 40.8689C23.7376 40.7057 24.0688 40.7025 24.3264 40.8609C25.024 41.2849 25.76 41.5921 26.5136 41.7745C26.8128 41.8465 27.0432 42.0833 27.1072 42.3825L27.5008 44.2001H28.2C28.6416 44.2001 29 44.5585 29 45.0001C29 45.4417 28.6416 45.8001 28.2 45.8001Z" fill="white"/>
</g>
</g>
</g>
<g id="XMLID_1813_">
<g id="XMLID_1890_">
<g id="Group_27">
<g id="Group_28">
<path id="Vector_14" d="M40.2 45C40.136 45 40.072 44.992 40.0064 44.976C39.576 44.8688 39.3168 44.4352 39.424 44.0064L41.024 37.6064C41.1296 37.176 41.5568 36.9168 41.9936 37.024C42.424 37.1312 42.6832 37.5648 42.576 37.9936L40.976 44.3936C40.8864 44.7584 40.56 45 40.2 45Z" fill="white"/>
</g>
</g>
</g>
<g id="XMLID_1888_">
<g id="Group_29">
<g id="Group_30">
<path id="Vector_15" d="M45 45C44.7952 45 44.5904 44.9216 44.4336 44.7664C44.1216 44.4544 44.1216 43.9472 44.4336 43.6352L47.0688 41L44.4352 38.3664C44.1232 38.0544 44.1232 37.5472 44.4352 37.2352C44.7472 36.9232 45.2544 36.9232 45.5664 37.2352L48.7664 40.4352C49.0784 40.7472 49.0784 41.2544 48.7664 41.5664L45.5664 44.7664C45.4096 44.9216 45.2048 45 45 45Z" fill="white"/>
</g>
</g>
</g>
<g id="XMLID_1887_">
<g id="Group_31">
<g id="Group_32">
<path id="Vector_16" d="M37 44.9998C36.7952 44.9998 36.5904 44.9214 36.4336 44.7662L33.2336 41.5662C32.9216 41.2542 32.9216 40.747 33.2336 40.435L36.4336 37.235C36.7456 36.923 37.2528 36.923 37.5648 37.235C37.8768 37.547 37.8768 38.0542 37.5648 38.3662L34.9312 40.9998L37.5648 43.6334C37.8768 43.9454 37.8768 44.4526 37.5648 44.7646C37.4096 44.9214 37.2048 44.9998 37 44.9998Z" fill="white"/>
</g>
</g>
</g>
</g>
</g>
</g>
</g>
</svg>
