<svg width="53" height="65" viewBox="0 0 53 65" fill="none" xmlns="http://www.w3.org/2000/svg">
<path id="Vector" d="M17.1908 14.7727C17.1908 9.72045 21.2408 5.61364 26.2232 5.61364C31.2056 5.61364 35.2556 9.72045 35.2556 14.7727V20.6818H21.6778L27.5052 26.5909H43.7053V43.0182L49.5327 48.9273V26.5909C49.5327 23.3409 46.9104 20.6818 43.7053 20.6818H40.7916V14.7727C40.7916 6.61818 34.265 0 26.2232 0C19.4634 0 13.8109 4.69773 12.1792 11.05L17.1908 16.1318V14.7727ZM4.1083 11.2568L0 15.4227L5.94392 21.45C4.13744 22.4545 2.91369 24.375 2.91369 26.5909V56.1364C2.91369 59.3864 5.53601 62.0455 8.74107 62.0455H45.978L48.8917 65L53 60.8341L4.1083 11.2568ZM8.74107 56.1364V26.5909H11.0137L40.1506 56.1364H8.74107Z" fill="#1295D2"/>
</svg>
