<svg width="166" height="27" viewBox="0 0 166 27" fill="none" xmlns="http://www.w3.org/2000/svg">
<g id="Group">
<path id="Vector" d="M12.6968 3.69281L9.91668 6.13963C8.94085 4.7853 7.94605 4.1074 6.93521 4.1074C6.44219 4.1074 6.03961 4.23833 5.726 4.50163C5.4124 4.76493 5.25632 5.06169 5.25632 5.39046C5.25632 5.71922 5.36863 6.03198 5.5918 6.32583C5.89666 6.71861 6.81414 7.56089 8.34426 8.85267C9.77664 10.047 10.646 10.8005 10.9494 11.1118C11.7108 11.8785 12.249 12.6116 12.567 13.3114C12.885 14.0111 13.044 14.7748 13.044 15.604C13.044 17.2173 12.4853 18.5498 11.3666 19.6015C10.2478 20.6533 8.78915 21.1799 6.99064 21.1799C5.58597 21.1799 4.36217 20.8366 3.31925 20.1499C2.27632 19.4633 1.38362 18.3854 0.641174 16.9147L3.79622 15.0163C4.74579 16.7547 5.83686 17.6231 7.07233 17.6231C7.71705 17.6231 8.25821 17.4355 8.69726 17.0616C9.13631 16.6877 9.3551 16.2557 9.3551 15.764C9.3551 15.3189 9.18882 14.8723 8.8577 14.4271C8.52659 13.982 7.79727 13.2997 6.66828 12.3818C4.5197 10.6347 3.13108 9.28617 2.50532 8.33624C1.87811 7.38632 1.56596 6.4393 1.56596 5.4952C1.56596 4.13068 2.08669 2.96109 3.12962 1.98498C4.17254 1.00887 5.45907 0.521545 6.98918 0.521545C7.97377 0.521545 8.91167 0.748478 9.80144 1.2038C10.6912 1.65913 11.6554 2.48686 12.6939 3.69136L12.6968 3.69281Z" fill="#1295D2"/>
<path id="Vector_2" d="M22.4187 6.06396C24.4505 6.06396 26.1761 6.78114 27.5939 8.21403C29.0117 9.64692 29.7221 11.3766 29.7221 13.403C29.7221 15.4294 28.9986 17.127 27.5531 18.5512C26.1061 19.9754 24.3864 20.6867 22.3909 20.6867C21.2736 20.6867 20.1753 20.4307 19.0959 19.9201V26.7936H15.0598V12.9098C15.0598 12.3629 15.1969 11.7053 15.4712 10.9387C16.0021 9.45926 16.8992 8.27803 18.1623 7.39212C19.4255 6.5062 20.8433 6.06396 22.4187 6.06396ZM19.0959 13.3899C19.0959 14.2991 19.4153 15.0672 20.0571 15.6941C20.6975 16.3211 21.4749 16.6353 22.3909 16.6353C23.307 16.6353 24.0611 16.3168 24.7116 15.6811C25.3607 15.0453 25.686 14.2816 25.686 13.3899C25.686 12.4981 25.3607 11.7315 24.7116 11.0856C24.0611 10.4397 23.288 10.1168 22.3909 10.1168C21.4939 10.1168 20.7208 10.4397 20.0702 11.0856C19.4197 11.7315 19.0959 12.4996 19.0959 13.3899Z" fill="#1295D2"/>
<path id="Vector_3" d="M30.711 13.3477C30.711 11.3402 31.4243 9.61489 32.8523 8.17182C34.2803 6.7302 36 6.00867 38.0144 6.00867C40.7975 6.00867 42.93 7.26554 44.412 9.77782C44.4849 9.88692 44.6221 10.1328 44.8233 10.5154C45.0801 11.0623 45.3733 11.7082 45.7015 12.4545C45.7015 12.4734 45.7102 12.4996 45.7292 12.5359V12.5636C45.7292 12.5825 45.7204 12.5912 45.7015 12.5912L36.8329 16.3327C37.0896 16.4971 37.482 16.5786 38.013 16.5786C39.0194 16.5786 39.9077 16.1582 40.6764 15.3188H45.0976V15.3464C45.0246 15.7479 44.8321 16.2222 44.5214 16.7706C43.038 19.3454 40.8515 20.6314 37.959 20.6314C35.9636 20.6314 34.257 19.9157 32.8377 18.4813C31.4184 17.0485 30.7095 15.3363 30.7095 13.3462L30.711 13.3477ZM38.0698 10.0615C36.6418 10.0615 35.6441 10.6826 35.0767 11.9235C34.8929 12.325 34.8025 12.6261 34.8025 12.8269H34.8302L39.9369 10.6914C39.9179 10.6361 39.8173 10.5546 39.635 10.4455C39.1405 10.1895 38.6197 10.0615 38.0698 10.0615Z" fill="#1295D2"/>
<path id="Vector_4" d="M46.6919 13.3215C46.6919 11.5511 47.2681 9.98586 48.4218 8.62571C49.5756 7.26556 51.0211 6.43055 52.7598 6.1207C53.1989 6.04796 53.6204 6.0116 54.023 6.0116C55.3591 6.03051 56.6048 6.37673 57.7571 7.05171C58.9109 7.7267 59.8065 8.64026 60.4483 9.78948C60.4848 9.82585 60.5942 10.0266 60.778 10.3917C60.778 10.3001 60.8334 10.447 60.9428 10.8296C60.9982 10.9576 61.0435 11.1031 61.0799 11.2675V11.3489H56.6865C55.8624 10.4906 54.9843 10.0615 54.0507 10.0615C53.1172 10.0615 52.3339 10.3801 51.7023 11.0158C51.0707 11.6515 50.7557 12.4254 50.7557 13.3331C50.7557 14.2409 51.0751 14.9886 51.7169 15.6243C52.3573 16.26 53.126 16.5786 54.023 16.5786C55.0295 16.5786 55.9178 16.1582 56.6865 15.3188H61.0799V15.4003C61.0245 15.5647 60.9516 15.7843 60.8597 16.0578C60.7313 16.423 60.4206 16.9612 59.9261 17.674C59.7613 17.9111 59.404 18.3039 58.8555 18.8509C58.7461 18.9425 58.6819 18.9978 58.663 19.0152C57.2349 20.0932 55.6873 20.6314 54.023 20.6314C52.0086 20.6314 50.2845 19.9201 48.8478 18.4959C47.411 17.0718 46.6919 15.3465 46.6919 13.3201V13.3215Z" fill="#1295D2"/>
<path id="Vector_5" d="M62.0689 0.779053H66.105V5.89963H68.0814V9.95245H66.105V16.007C66.105 16.135 66.1691 16.2703 66.2975 16.4157C66.4259 16.5612 66.5542 16.6339 66.6826 16.6339H68.3294V20.6868H66.4069C66.1502 20.6868 65.8395 20.6315 65.4734 20.5224C63.8076 20.0292 62.7282 18.944 62.2337 17.2638C62.1243 16.8812 62.0689 16.5336 62.0689 16.2237V0.779053Z" fill="#1295D2"/>
<path id="Vector_6" d="M75.5789 6.00867V10.0339H74.0414C73.8037 10.0339 73.6345 10.1211 73.5338 10.2942C73.4332 10.4674 73.3821 10.5634 73.3821 10.5823V20.6867H69.3184V10.6914C69.3184 9.63235 69.6524 8.68388 70.3204 7.84306C70.9885 7.00369 71.8447 6.43781 72.8877 6.14541C73.2173 6.05376 73.528 6.00867 73.8212 6.00867H75.5789Z" fill="#1295D2"/>
<path id="Vector_7" d="M76.5663 13.3477C76.5663 11.3402 77.2796 9.62364 78.7076 8.19948C80.1356 6.77532 81.8466 6.06396 83.842 6.06396C85.8374 6.06396 87.6126 6.77532 89.0596 8.19948C90.5051 9.62364 91.2285 11.3489 91.2285 13.3753C91.2285 15.4017 90.5095 17.0819 89.0727 18.5236C87.6359 19.9666 85.9103 20.6867 83.8974 20.6867C81.8845 20.6867 80.1356 19.971 78.7076 18.5366C77.2796 17.1038 76.5663 15.3741 76.5663 13.3477ZM80.6038 13.3622C80.6038 14.2714 80.9232 15.0439 81.5651 15.6811C82.2054 16.3168 82.9829 16.6353 83.8989 16.6353C84.8149 16.6353 85.569 16.3124 86.2196 15.668C86.8687 15.0221 87.194 14.254 87.194 13.3637C87.194 12.4734 86.8643 11.7097 86.205 11.0725C85.5457 10.4354 84.7682 10.1182 83.8712 10.1182C82.9741 10.1182 82.2054 10.4368 81.5651 11.0725C80.9247 11.7082 80.6038 12.472 80.6038 13.3637V13.3622Z" fill="#1295D2"/>
<path id="Vector_8" d="M112.455 0.668507C114.523 0.668507 116.386 1.2984 118.043 2.55817C119.7 3.81795 120.83 5.43414 121.434 7.40527C121.691 8.26355 121.819 9.08546 121.819 9.86955V20.6315H117.755V9.4855C117.755 9.41277 117.7 9.14801 117.591 8.69123C117.316 7.54056 116.689 6.59209 115.709 5.84291C114.73 5.09519 113.636 4.71987 112.427 4.71987C111.329 4.71987 110.308 5.03991 109.365 5.67853C108.423 6.31715 107.777 7.14779 107.43 8.17045C107.32 8.49921 107.246 8.76397 107.209 8.96472C107.173 9.09273 107.137 9.30221 107.1 9.5946V20.63H103.064V9.40259C103.064 8.69123 103.257 7.80531 103.64 6.74628C104.3 4.93953 105.447 3.47319 107.087 2.35161C108.725 1.22857 110.515 0.667053 112.455 0.667053V0.668507Z" fill="#1295D2"/>
<path id="Vector_9" d="M122.807 13.3477C122.807 11.3402 123.52 9.62364 124.948 8.19948C126.376 6.77532 128.087 6.06396 130.082 6.06396C132.078 6.06396 133.853 6.77532 135.3 8.19948C136.746 9.62364 137.469 11.3489 137.469 13.3753C137.469 15.4017 136.75 17.0819 135.313 18.5236C133.876 19.9666 132.151 20.6867 130.138 20.6867C128.125 20.6867 126.376 19.971 124.948 18.5366C123.52 17.1038 122.807 15.3741 122.807 13.3477ZM126.844 13.3622C126.844 14.2714 127.164 15.0439 127.805 15.6811C128.446 16.3168 129.223 16.6353 130.139 16.6353C131.055 16.6353 131.809 16.3124 132.46 15.668C133.109 15.0221 133.434 14.254 133.434 13.3637C133.434 12.4734 133.105 11.7097 132.445 11.0725C131.786 10.4354 131.009 10.1182 130.112 10.1182C129.215 10.1182 128.446 10.4368 127.805 11.0725C127.165 11.7082 126.844 12.472 126.844 13.3637V13.3622Z" fill="#1295D2"/>
<path id="Vector_10" d="M136.783 6.06396H141.121L144.417 14.4431L147.712 6.06396H152.023L146.367 20.6052C146.348 20.6242 146.33 20.6503 146.311 20.6867C146.292 20.7231 146.275 20.742 146.256 20.742H142.576C142.557 20.742 142.544 20.7289 142.535 20.7013C142.526 20.6736 142.503 20.6416 142.466 20.6052L136.782 6.06396H136.783Z" fill="#1295D2"/>
<path id="Vector_11" d="M161.964 19.8924C160.866 20.4219 159.759 20.6867 158.641 20.6867C156.627 20.6867 154.907 19.9681 153.479 18.5294C152.051 17.0906 151.338 15.3639 151.338 13.3477C151.338 11.3315 152.055 9.58726 153.494 8.166C154.93 6.74621 156.665 6.03485 158.697 6.03485C160.217 6.03485 161.611 6.47708 162.884 7.363C164.156 8.24892 165.049 9.4025 165.561 10.8267C165.854 11.6486 166 12.3323 166 12.8807V20.6852H161.964V19.891V19.8924ZM155.374 13.3477C155.374 14.2423 155.699 15.0133 156.348 15.6621C156.997 16.3109 157.772 16.6339 158.669 16.6339C159.566 16.6339 160.339 16.3095 160.99 15.6621C161.639 15.0148 161.964 14.2423 161.964 13.3477C161.964 12.453 161.643 11.7097 161.003 11.0609C160.362 10.4135 159.592 10.0891 158.697 10.0891C157.801 10.0891 157.022 10.4048 156.363 11.0332C155.704 11.6631 155.374 12.4341 155.374 13.3477Z" fill="#1295D2"/>
</g>
</svg>
